/* XPM */
static char *result[] = {
/* columns rows colors chars-per-pixel */
"128 128 3 1 ",
"  c #1E1E3C",
". c #999923",
"X c #FFF200",
/* pixels */
"                                                                                                                                ",
"                                                                                                                                ",
"                                                                                                                                ",
"                                                                                                                                ",
"                                                                                                                                ",
"                                                                                                                                ",
"                                                                                                                                ",
"                                                                                                                                ",
"                                                                                                                                ",
"                                                                                                                                ",
"                                                    XXXXXXXXXXXXXXXXXXXXXX                                                      ",
"                                                    XXXXXXXXXXXXXXXXXXXXXX                                                      ",
"                                              XXXXXX......................XXXXXX                                                ",
"                                              XXXXXX......................XXXXXX                                                ",
"                                        XXXXXX..................................XXXXXX                                          ",
"                                        XXXXXX..................................XXXXXX                                          ",
"                                    XXXX..............................................XXXX                                      ",
"                                    XXXX..............................................XXXX                                      ",
"                                  XX......................................................XX                                    ",
"                                  XX......................................................XX                                    ",
"                                XX..........................................................XX                                  ",
"                                XX..........................................................XX                                  ",
"                            XXXX..............................................................XXXX                              ",
"                            XXXX..............................................................XXXX                              ",
"                          XX......................................................................XX                            ",
"                          XX......................................................................XX                            ",
"                        XX..........................................................................XX                          ",
"                        XX..........................................................................XX                          ",
"                      XX..............................................................................XX                        ",
"                      XX..............................................................................XX                        ",
"                      XX..............................................................................XX                        ",
"                      XX..............................................................................XX                        ",
"                    XX..................................................................................XX                      ",
"                    XX..................................................................................XX                      ",
"                  XX................................XXXXXXXXXXXXXXXXXXXXXX................................XX                    ",
"                  XX................................XXXXXXXXXXXXXXXXXXXXXX................................XX                    ",
"                XX..............................XXXXXXXXXXXXXXXXXXXXXXXXXXXXXX..............................XX                  ",
"                XX..............................XXXXXXXXXXXXXXXXXXXXXXXXXXXXXX..............................XX                  ",
"                XX............................XXXXXXXXXXXXXXXXXXXXXXXXXXXXXXXXXX............................XX                  ",
"                XX............................XXXXXXXXXXXXXXXXXXXXXXXXXXXXXXXXXX............................XX                  ",
"              XX............................XXXXXXXXXX................XXXXXXXXXXXX............................XX                ",
"              XX............................XXXXXXXXXX................XXXXXXXXXXXX............................XX                ",
"              XX..........................XXXXXXXXXX........................XXXXXXXX..........................XX                ",
"              XX..........................XXXXXXXXXX........................XXXXXXXX..........................XX                ",
"              XX........................XXXXXXXXXX............................XXXXXX..........................XX                ",
"              XX........................XXXXXXXXXX............................XXXXXX..........................XX                ",
"            XX........................XXXXXXXXXX................................................................XX              ",
"            XX........................XXXXXXXXXX................................................................XX              ",
"            XX........................XXXXXXXX..................................................................XX              ",
"            XX........................XXXXXXXX..................................................................XX              ",
"            XX......................XXXXXXXX....................................................................XX              ",
"            XX......................XXXXXXXX....................................................................XX              ",
"          XX........................XXXXXX........................................................................XX            ",
"          XX........................XXXXXX........................................................................XX            ",
"          XX......................XXXXXXXX........................................................................XX            ",
"          XX......................XXXXXXXX........................................................................XX            ",
"          XX......................XXXXXX..........................................................................XX            ",
"          XX......................XXXXXX..........................................................................XX            ",
"          XX......................XXXXXX..........................................................................XX            ",
"          XX......................XXXXXX..........................................................................XX            ",
"          XX......................XXXXXX..........................................................................XX            ",
"          XX......................XXXXXX..........................................................................XX            ",
"          XX......................XXXXXX..........................................................................XX            ",
"          XX......................XXXXXX..........................................................................XX            ",
"          XX......................XXXXXX..........................................................................XX            ",
"          XX......................XXXXXX..........................................................................XX            ",
"          XX......................XXXXXX..........................................................................XX            ",
"          XX......................XXXXXX..........................................................................XX            ",
"          XX......................XXXXXX..........................................................................XX            ",
"          XX......................XXXXXX..........................................................................XX            ",
"          XX......................XXXXXXXX........................................................................XX            ",
"          XX......................XXXXXXXX........................................................................XX            ",
"          XX........................XXXXXX........................................................................XX            ",
"          XX........................XXXXXX........................................................................XX            ",
"            XX......................XXXXXXXX....................................................................XX              ",
"            XX......................XXXXXXXX....................................................................XX              ",
"            XX........................XXXXXXXX..................................................................XX              ",
"            XX........................XXXXXXXX..................................................................XX              ",
"            XX........................XXXXXXXXXX................................................................XX              ",
"            XX........................XXXXXXXXXX................................................................XX              ",
"              XX........................XXXXXXXXXX............................XXXXXX..........................XX                ",
"              XX........................XXXXXXXXXX............................XXXXXX..........................XX                ",
"              XX..........................XXXXXXXXXX........................XXXXXXXX..........................XX                ",
"              XX..........................XXXXXXXXXX........................XXXXXXXX..........................XX                ",
"              XX............................XXXXXXXXXX................XXXXXXXXXXXX............................XX                ",
"              XX............................XXXXXXXXXX................XXXXXXXXXXXX............................XX                ",
"                XX............................XXXXXXXXXXXXXXXXXXXXXXXXXXXXXXXXXX............................XX                  ",
"                XX............................XXXXXXXXXXXXXXXXXXXXXXXXXXXXXXXXXX............................XX                  ",
"                XX..............................XXXXXXXXXXXXXXXXXXXXXXXXXXXXXX..............................XX                  ",
"                XX..............................XXXXXXXXXXXXXXXXXXXXXXXXXXXXXX..............................XX                  ",
"                  XX................................XXXXXXXXXXXXXXXXXXXXXX................................XX                    ",
"                  XX................................XXXXXXXXXXXXXXXXXXXXXX................................XX                    ",
"                    XX..................................................................................XX                      ",
"                    XX..................................................................................XX                      ",
"                      XX..............................................................................XX                        ",
"                      XX..............................................................................XX                        ",
"                      XX..............................................................................XX                        ",
"                      XX..............................................................................XX                        ",
"                        XX..........................................................................XX                          ",
"                        XX..........................................................................XX                          ",
"                          XX......................................................................XX                            ",
"                          XX......................................................................XX                            ",
"                            XXXX..............................................................XXXX                              ",
"                            XXXX..............................................................XXXX                              ",
"                                XX..........................................................XX                                  ",
"                                XX..........................................................XX                                  ",
"                                  XX......................................................XX                                    ",
"                                  XX......................................................XX                                    ",
"                                    XXXX..............................................XXXX                                      ",
"                                    XXXX..............................................XXXX                                      ",
"                                        XXXXXX..................................XXXXXX                                          ",
"                                        XXXXXX..................................XXXXXX                                          ",
"                                              XXXXXX......................XXXXXX                                                ",
"                                              XXXXXX......................XXXXXX                                                ",
"                                                    XXXXXXXXXXXXXXXXXXXXXX                                                      ",
"                                                    XXXXXXXXXXXXXXXXXXXXXX                                                      ",
"                                                                                                                                ",
"                                                                                                                                ",
"                                                                                                                                ",
"                                                                                                                                ",
"                                                                                                                                ",
"                                                                                                                                ",
"                                                                                                                                ",
"                                                                                                                                ",
"                                                                                                                                ",
"                                                                                                                                ",
"                                                                                                                                ",
"                                                                                                                                "
};
