/* XPM */
static char *result[] = {
/* columns rows colors chars-per-pixel */
"128 128 3 1 ",
"  c #1E1E3C",
". c #999923",
"X c #FFF200",
/* pixels */
"                                                                                                                                ",
"                                                                                                                                ",
"                                                                                                                                ",
"                                                                                                                                ",
"                                                                                                                                ",
"                                                                                                                                ",
"                                                                                                                                ",
"                                                                                                                                ",
"                                                                                                                                ",
"                                                                                                                                ",
"                                                            XXXXXXXXXXXXXX                                                      ",
"                                                            XXXXXXXXXXXXXX                                                      ",
"                                                        XXXX..............XXXX                                                  ",
"                                                        XXXX..............XXXX                                                  ",
"                                                      XX......................XX                                                ",
"                                                      XX......................XX                                                ",
"                                                  XXXX..........................XXXX                                            ",
"                                                  XXXX..........................XXXX                                            ",
"                                                XX..................................XX                                          ",
"                                                XX..................................XX                                          ",
"                                                XX..................................XX                                          ",
"                                                XX..................................XX                                          ",
"                                              XX......................................XX                                        ",
"                                              XX......................................XX                                        ",
"                                            XX..........................................XX                                      ",
"                                            XX..........................................XX                                      ",
"                                          XX..............................................XX                                    ",
"                                          XX..............................................XX                                    ",
"                                          XX..............................................XX                                    ",
"                                          XX..............................................XX                                    ",
"                                        XX..................................................XX                                  ",
"                                        XX..................................................XX                                  ",
"                                        XX....................XXXXXXXXXX....................XX                                  ",
"                                        XX....................XXXXXXXXXX....................XX                                  ",
"                                        XX..................XXXXXXXXXXXXXXXX................XX                                  ",
"                                        XX..................XXXXXXXXXXXXXXXX................XX                                  ",
"                                      XX..................XXXX..........XXXXXX................XX                                ",
"                                      XX..................XXXX..........XXXXXX................XX                                ",
"                                      XX................XXXX..............XXXX................XX                                ",
"                                      XX................XXXX..............XXXX................XX                                ",
"                                      XX................XX..................XXXX..............XX                                ",
"                                      XX................XX..................XXXX..............XX                                ",
"                                    XX................XXXX....................XX................XX                              ",
"                                    XX................XXXX....................XX................XX                              ",
"                                    XX................XX......................XX................XX                              ",
"                                    XX................XX......................XX................XX                              ",
"                                    XX..............XXXX........................................XX                              ",
"                                    XX..............XXXX........................................XX                              ",
"                                    XX..............XXXX........................................XX                              ",
"                                    XX..............XXXX........................................XX                              ",
"                                  XX..............XXXX............................................XX                            ",
"                                  XX..............XXXX............................................XX                            ",
"                                  XX..............XXXX............................................XX                            ",
"                                  XX..............XXXX............................................XX                            ",
"                                  XX..............XXXX............................................XX                            ",
"                                  XX..............XXXX............................................XX                            ",
"                                  XX..............XXXX............................................XX                            ",
"                                  XX..............XXXX............................................XX                            ",
"                                  XX..............XXXX............................................XX                            ",
"                                  XX..............XXXX............................................XX                            ",
"                                  XX..............XXXX............................................XX                            ",
"                                  XX..............XXXX............................................XX                            ",
"                                  XX..............XXXX............................................XX                            ",
"                                  XX..............XXXX............................................XX                            ",
"                                  XX..............XXXX............................................XX                            ",
"                                  XX..............XXXX............................................XX                            ",
"                                  XX..............XXXX............................................XX                            ",
"                                  XX..............XXXX............................................XX                            ",
"                                  XX..............XXXX............................................XX                            ",
"                                  XX..............XXXX............................................XX                            ",
"                                  XX..............XXXX............................................XX                            ",
"                                  XX..............XXXX............................................XX                            ",
"                                  XX..............XXXX............................................XX                            ",
"                                  XX..............XXXX............................................XX                            ",
"                                  XX................XXXX..........................................XX                            ",
"                                  XX................XXXX..........................................XX                            ",
"                                    XX..............XXXX........................................XX                              ",
"                                    XX..............XXXX........................................XX                              ",
"                                    XX..............XXXX........................................XX                              ",
"                                    XX..............XXXX........................................XX                              ",
"                                    XX................XXXX....................XX................XX                              ",
"                                    XX................XXXX....................XX................XX                              ",
"                                    XX................XXXX....................XX................XX                              ",
"                                    XX................XXXX....................XX................XX                              ",
"                                      XX................XX..................XXXX..............XX                                ",
"                                      XX................XX..................XXXX..............XX                                ",
"                                      XX................XXXX..............XXXX................XX                                ",
"                                      XX................XXXX..............XXXX................XX                                ",
"                                      XX..................XXXX..........XXXXXX................XX                                ",
"                                      XX..................XXXX..........XXXXXX................XX                                ",
"                                        XX..................XXXXXXXXXXXXXXXX................XX                                  ",
"                                        XX..................XXXXXXXXXXXXXXXX................XX                                  ",
"                                        XX....................XXXXXXXXXX....................XX                                  ",
"                                        XX....................XXXXXXXXXX....................XX                                  ",
"                                        XX..................................................XX                                  ",
"                                        XX..................................................XX                                  ",
"                                          XX..............................................XX                                    ",
"                                          XX..............................................XX                                    ",
"                                          XX..............................................XX                                    ",
"                                          XX..............................................XX                                    ",
"                                            XX..........................................XX                                      ",
"                                            XX..........................................XX                                      ",
"                                              XX......................................XX                                        ",
"                                              XX......................................XX                                        ",
"                                                XX..................................XX                                          ",
"                                                XX..................................XX                                          ",
"                                                XX..................................XX                                          ",
"                                                XX..................................XX                                          ",
"                                                  XXXX..........................XXXX                                            ",
"                                                  XXXX..........................XXXX                                            ",
"                                                      XX......................XX                                                ",
"                                                      XX......................XX                                                ",
"                                                        XXXX..............XXXX                                                  ",
"                                                        XXXX..............XXXX                                                  ",
"                                                            XXXXXXXXXXXXXX                                                      ",
"                                                            XXXXXXXXXXXXXX                                                      ",
"                                                                                                                                ",
"                                                                                                                                ",
"                                                                                                                                ",
"                                                                                                                                ",
"                                                                                                                                ",
"                                                                                                                                ",
"                                                                                                                                ",
"                                                                                                                                ",
"                                                                                                                                ",
"                                                                                                                                ",
"                                                                                                                                ",
"                                                                                                                                "
};
