/* XPM */
static char *result[] = {
/* columns rows colors chars-per-pixel */
"128 128 3 1 ",
"  c #1E1E3C",
". c #999923",
"X c #FFF200",
/* pixels */
"                                                                                                                                ",
"                                                                                                                                ",
"                                                                                                                                ",
"                                                                                                                                ",
"                                                                                                                                ",
"                                                                                                                                ",
"                                                                                                                                ",
"                                                                                                                                ",
"                                                                                                                                ",
"                                                                                                                                ",
"                                                            XXXXXXXXXX                                                          ",
"                                                            XXXXXXXXXX                                                          ",
"                                                          XX......XXXXXX                                                        ",
"                                                          XX......XXXXXX                                                        ",
"                                                        XX..........XXXXXX                                                      ",
"                                                        XX..........XXXXXX                                                      ",
"                                                        XX..........XXXXXX                                                      ",
"                                                        XX..........XXXXXX                                                      ",
"                                                      XX..............XXXXXX                                                    ",
"                                                      XX..............XXXXXX                                                    ",
"                                                      XX..............XXXXXX                                                    ",
"                                                      XX..............XXXXXX                                                    ",
"                                                      XX..............XXXXXX                                                    ",
"                                                      XX..............XXXXXX                                                    ",
"                                                    XX..................XXXXXX                                                  ",
"                                                    XX..................XXXXXX                                                  ",
"                                                    XX..................XXXXXX                                                  ",
"                                                    XX..................XXXXXX                                                  ",
"                                                    XX..................XXXXXX                                                  ",
"                                                    XX..................XXXXXX                                                  ",
"                                                  XX..........XX..........XXXXXX                                                ",
"                                                  XX..........XX..........XXXXXX                                                ",
"                                                  XX........XXXXXX........XXXXXX                                                ",
"                                                  XX........XXXXXX........XXXXXX                                                ",
"                                                  XX........XX..XX........XXXXXX                                                ",
"                                                  XX........XX..XX........XXXXXX                                                ",
"                                                  XX........XX..XXXX......XXXXXX                                                ",
"                                                  XX........XX..XXXX......XXXXXX                                                ",
"                                                  XX......XXXX..XXXX......XXXXXX                                                ",
"                                                  XX......XXXX..XXXX......XXXXXX                                                ",
"                                                  XX......XXXX..XXXX......XXXXXX                                                ",
"                                                  XX......XXXX..XXXX......XXXXXX                                                ",
"                                                  XX......XX......XX......XXXXXX                                                ",
"                                                  XX......XX......XX......XXXXXX                                                ",
"                                                XX........XX......XX........XXXXXX                                              ",
"                                                XX........XX......XX........XXXXXX                                              ",
"                                                XX........XX................XXXXXX                                              ",
"                                                XX........XX................XXXXXX                                              ",
"                                                XX........XX................XXXXXX                                              ",
"                                                XX........XX................XXXXXX                                              ",
"                                                XX........XX................XXXXXX                                              ",
"                                                XX........XX................XXXXXX                                              ",
"                                                XX........XX................XXXXXX                                              ",
"                                                XX........XX................XXXXXX                                              ",
"                                                XX........XX................XXXXXX                                              ",
"                                                XX........XX................XXXXXX                                              ",
"                                                XX........XX................XXXXXX                                              ",
"                                                XX........XX................XXXXXX                                              ",
"                                                XX........XX................XXXXXX                                              ",
"                                                XX........XX................XXXXXX                                              ",
"                                                XX........XX................XXXXXX                                              ",
"                                                XX........XX................XXXXXX                                              ",
"                                                XX........XX................XXXXXX                                              ",
"                                                XX........XX................XXXXXX                                              ",
"                                                XX........XX................XXXXXX                                              ",
"                                                XX........XX................XXXXXX                                              ",
"                                                XX........XX................XXXXXX                                              ",
"                                                XX........XX................XXXXXX                                              ",
"                                                XX........XX................XXXXXX                                              ",
"                                                XX........XX................XXXXXX                                              ",
"                                                XX........XX................XXXXXX                                              ",
"                                                XX........XX................XXXXXX                                              ",
"                                                XX........XX................XXXXXX                                              ",
"                                                XX........XX................XXXXXX                                              ",
"                                                XX........XX................XXXXXX                                              ",
"                                                XX........XX................XXXXXX                                              ",
"                                                XX........XX................XXXXXX                                              ",
"                                                XX........XX................XXXXXX                                              ",
"                                                XX........XX................XXXXXX                                              ",
"                                                XX........XX................XXXXXX                                              ",
"                                                XX........XX......XX........XXXXXX                                              ",
"                                                XX........XX......XX........XXXXXX                                              ",
"                                                  XX......XX......XX......XXXXXX                                                ",
"                                                  XX......XX......XX......XXXXXX                                                ",
"                                                  XX......XXXX..XXXX......XXXXXX                                                ",
"                                                  XX......XXXX..XXXX......XXXXXX                                                ",
"                                                  XX......XXXX..XXXX......XXXXXX                                                ",
"                                                  XX......XXXX..XXXX......XXXXXX                                                ",
"                                                  XX........XX..XX........XXXXXX                                                ",
"                                                  XX........XX..XX........XXXXXX                                                ",
"                                                  XX........XX..XX........XXXXXX                                                ",
"                                                  XX........XX..XX........XXXXXX                                                ",
"                                                  XX........XXXXXX........XXXXXX                                                ",
"                                                  XX........XXXXXX........XXXXXX                                                ",
"                                                  XX..........XX..........XXXXXX                                                ",
"                                                  XX..........XX..........XXXXXX                                                ",
"                                                    XX..................XXXXXX                                                  ",
"                                                    XX..................XXXXXX                                                  ",
"                                                    XX..................XXXXXX                                                  ",
"                                                    XX..................XXXXXX                                                  ",
"                                                    XX..................XXXXXX                                                  ",
"                                                    XX..................XXXXXX                                                  ",
"                                                      XX..............XXXXXX                                                    ",
"                                                      XX..............XXXXXX                                                    ",
"                                                      XX..............XXXXXX                                                    ",
"                                                      XX..............XXXXXX                                                    ",
"                                                      XX..............XXXXXX                                                    ",
"                                                      XX..............XXXXXX                                                    ",
"                                                        XX..........XXXXXX                                                      ",
"                                                        XX..........XXXXXX                                                      ",
"                                                        XX..........XXXXXX                                                      ",
"                                                        XX..........XXXXXX                                                      ",
"                                                          XX......XXXXXX                                                        ",
"                                                          XX......XXXXXX                                                        ",
"                                                            XXXXXXXXXX                                                          ",
"                                                            XXXXXXXXXX                                                          ",
"                                                                                                                                ",
"                                                                                                                                ",
"                                                                                                                                ",
"                                                                                                                                ",
"                                                                                                                                ",
"                                                                                                                                ",
"                                                                                                                                ",
"                                                                                                                                ",
"                                                                                                                                ",
"                                                                                                                                ",
"                                                                                                                                ",
"                                                                                                                                "
};
