/* XPM */
static char *result[] = {
/* columns rows colors chars-per-pixel */
"128 128 2 1 ",
"  c #1E1E3C",
". c #FFF200",
/* pixels */
"                                                                                                                                ",
"                                                                                                                                ",
"                                                                                                                                ",
"                                                                                                                                ",
"                                                                                                                                ",
"                                                                                                                                ",
"                                                                                                                                ",
"                                                                                                                                ",
"                                                                                                                                ",
"                                                                                                                                ",
"                                                          ..........                                                            ",
"                                                          ..........                                                            ",
"                                                          ..........                                                            ",
"                                                          ..........                                                            ",
"                                                          ..........                                                            ",
"                                                          ..........                                                            ",
"                                                          ..........                                                            ",
"                                                          ..........                                                            ",
"                                                          ..........                                                            ",
"                                                          ..........                                                            ",
"                                                          ..........                                                            ",
"                                                          ..........                                                            ",
"                                                          ..........                                                            ",
"                                                          ..........                                                            ",
"                                                          ..........                                                            ",
"                                                          ..........                                                            ",
"                                                          ..........                                                            ",
"                                                          ..........                                                            ",
"                                                          ..........                                                            ",
"                                                          ..........                                                            ",
"                                                          ..........                                                            ",
"                                                          ..........                                                            ",
"                                                          ..........                                                            ",
"                                                          ..........                                                            ",
"                                                          ..........                                                            ",
"                                                          ..........                                                            ",
"                                                          ..........                                                            ",
"                                                          ..........                                                            ",
"                                                          ..........                                                            ",
"                                                          ..........                                                            ",
"                                                          ..........                                                            ",
"                                                          ..........                                                            ",
"                                                          ..........                                                            ",
"                                                          ..........                                                            ",
"                                                          ..........                                                            ",
"                                                          ..........                                                            ",
"                                                          ..........                                                            ",
"                                                          ..........                                                            ",
"                                                          ..........                                                            ",
"                                                          ..........                                                            ",
"                                                          ..........                                                            ",
"                                                          ..........                                                            ",
"                                                          ..........                                                            ",
"                                                          ..........                                                            ",
"                                                          ..........                                                            ",
"                                                          ..........                                                            ",
"                                                          ..........                                                            ",
"                                                          ..........                                                            ",
"                                                          ..........                                                            ",
"                                                          ..........                                                            ",
"                                                          ..........                                                            ",
"                                                          ..........                                                            ",
"                                                          ..........                                                            ",
"                                                          ..........                                                            ",
"                                                          ..........                                                            ",
"                                                          ..........                                                            ",
"                                                          ..........                                                            ",
"                                                          ..........                                                            ",
"                                                          ..........                                                            ",
"                                                          ..........                                                            ",
"                                                          ..........                                                            ",
"                                                          ..........                                                            ",
"                                                          ..........                                                            ",
"                                                          ..........                                                            ",
"                                                          ..........                                                            ",
"                                                          ..........                                                            ",
"                                                          ..........                                                            ",
"                                                          ..........                                                            ",
"                                                          ..........                                                            ",
"                                                          ..........                                                            ",
"                                                          ..........                                                            ",
"                                                          ..........                                                            ",
"                                                          ..........                                                            ",
"                                                          ..........                                                            ",
"                                                          ..........                                                            ",
"                                                          ..........                                                            ",
"                                                          ..........                                                            ",
"                                                          ..........                                                            ",
"                                                          ..........                                                            ",
"                                                          ..........                                                            ",
"                                                          ..........                                                            ",
"                                                          ..........                                                            ",
"                                                          ..........                                                            ",
"                                                          ..........                                                            ",
"                                                          ..........                                                            ",
"                                                          ..........                                                            ",
"                                                          ..........                                                            ",
"                                                          ..........                                                            ",
"                                                          ..........                                                            ",
"                                                          ..........                                                            ",
"                                                          ..........                                                            ",
"                                                          ..........                                                            ",
"                                                          ..........                                                            ",
"                                                          ..........                                                            ",
"                                                          ..........                                                            ",
"                                                          ..........                                                            ",
"                                                          ..........                                                            ",
"                                                          ..........                                                            ",
"                                                          ..........                                                            ",
"                                                          ..........                                                            ",
"                                                          ..........                                                            ",
"                                                          ..........                                                            ",
"                                                          ..........                                                            ",
"                                                          ..........                                                            ",
"                                                          ..........                                                            ",
"                                                          ..........                                                            ",
"                                                                                                                                ",
"                                                                                                                                ",
"                                                                                                                                ",
"                                                                                                                                ",
"                                                                                                                                ",
"                                                                                                                                ",
"                                                                                                                                ",
"                                                                                                                                ",
"                                                                                                                                ",
"                                                                                                                                ",
"                                                                                                                                ",
"                                                                                                                                "
};
