/* XPM */
static char *result[] = {
/* columns rows colors chars-per-pixel */
"128 128 6 1 ",
"  c black",
". c #1F1E1F",
"X c #1E1E3C",
"o c #302F30",
"O c #464646",
"+ c #B4B4B4",
/* pixels */
"XXXXXXXXXXXXXXXXXXXXXXXXXXXXXXXXXXXXXXXXXXXXXXXXXXXXXXXXXXXXXXXXXXXXXXXXXXXXXXXXXXXXXXXXXXXXXXXXXXXXXXXXXXXXXXXXXXXXXXXXXXXXXXXX",
"XXXXXXXXXXXXXXXXXXXXXXXXXXXXXXXXXXXXXXXXXXXXXXXXXXXXXXXXXXXXXXXXXXXXXXXXXXXXXXXXXXXXXXXXXXXXXXXXXXXXXXXXXXXXXXXXXXXXXXXXXXXXXXXX",
"XXXXXXXXXXXXXXXXXXXXXXXXXXXXXXXXXXXXXXXXXXXXXXXXXXXXXXXXXXXXXXXXXXXXXXXXXXXXXXXXXXXXXXXXXXXXXXXXXXXXXXXXXXXXXXXXXXXXXXXXXXXXXXXX",
"XXXXXXXXXXXXXXXXXXXXXXXXXXXXXXXXXXXXXXXXXXXXXXXXXXXXXXXXXXXXXXXXXXXXXXXXXXXXXXXXXXXXXXXXXXXXXXXXXXXXXXXXXXXXXXXXXXXXXXXXXXXXXXXX",
"XXXXXXXXXXXXXXXXXXXXXXXXXXXXXXXXXXXXXXXXXXXXXXXXXXXXXXXXXXXXXXXXXXXXXXXXXXXXXXXXXXXXXXXXXXXXXXXXXXXXXXXXXXXXXXXXXXXXXXXXXXXXXXXX",
"XXXXXXXXXXXXXXXXXXXXXXXXXXXXXXXXXXXXXXXXXXXXXXXXXXXXXXXXXXXXXXXXXXXXXXXXXXXXXXXXXXXXXXXXXXXXXXXXXXXXXXXXXXXXXXXXXXXXXXXXXXXXXXXX",
"XXXXXXXXXXXXXXXXXXXXXXXXXXXXXXXXXXXXXXXXXXXXXXXXXX++++++++++++++++++++++++++XXXXXXXXXXXXXXXXXXXXXXXXXXXXXXXXXXXXXXXXXXXXXXXXXXXX",
"XXXXXXXXXXXXXXXXXXXXXXXXXXXXXXXXXXXXXXXXXXXXXXXXXX++++++++++++++++++++++++++XXXXXXXXXXXXXXXXXXXXXXXXXXXXXXXXXXXXXXXXXXXXXXXXXXXX",
"XXXXXXXXXXXXXXXXXXXXXXXXXXXXXXXXXXXXXXXXXX++++++++++OOOOOOOOOO++OOOOOOOOOO++++++++++XXXXXXXXXXXXXXXXXXXXXXXXXXXXXXXXXXXXXXXXXXXX",
"XXXXXXXXXXXXXXXXXXXXXXXXXXXXXXXXXXXXXXXXXX++++++++++OOOOOOOOOO++OOOOOOOOOO++++++++++XXXXXXXXXXXXXXXXXXXXXXXXXXXXXXXXXXXXXXXXXXXX",
"XXXXXXXXXXXXXXXXXXXXXXXXXXXXXXXXXXXX++++++OOOOOOOO++          ++          ++OOOOOOOO++++++XXXXXXXXXXXXXXXXXXXXXXXXXXXXXXXXXXXXXX",
"XXXXXXXXXXXXXXXXXXXXXXXXXXXXXXXXXXXX++++++OOOOOOOO++          ++          ++OOOOOOOO++++++XXXXXXXXXXXXXXXXXXXXXXXXXXXXXXXXXXXXXX",
"XXXXXXXXXXXXXXXXXXXXXXXXXXXXXXXX++++OOOO++OO      ++          ++          ++      OO++OOOO++++XXXXXXXXXXXXXXXXXXXXXXXXXXXXXXXXXX",
"XXXXXXXXXXXXXXXXXXXXXXXXXXXXXXXX++++OOOO++OO      ++          ++          ++      OO++OOOO++++XXXXXXXXXXXXXXXXXXXXXXXXXXXXXXXXXX",
"XXXXXXXXXXXXXXXXXXXXXXXXXXXX++++OOOOOO  ++        ++          ++          ++        ++  OOOOOO++++XXXXXXXXXXXXXXXXXXXXXXXXXXXXXX",
"XXXXXXXXXXXXXXXXXXXXXXXXXXXX++++OOOOOO  ++        ++          ++          ++        ++  OOOOOO++++XXXXXXXXXXXXXXXXXXXXXXXXXXXXXX",
"XXXXXXXXXXXXXXXXXXXXXXXX++++OO++OO      ++        ++          ++          ++        ++      OO++OO++++XXXXXXXXXXXXXXXXXXXXXXXXXX",
"XXXXXXXXXXXXXXXXXXXXXXXX++++OO++OO      ++        ++          ++          ++        ++      OO++OO++++XXXXXXXXXXXXXXXXXXXXXXXXXX",
"XXXXXXXXXXXXXXXXXXXXXX++OOOOOO++        ++        ++          ++          ++        ++        ++OOOOOO++XXXXXXXXXXXXXXXXXXXXXXXX",
"XXXXXXXXXXXXXXXXXXXXXX++OOOOOO++        ++        ++          ++          ++        ++        ++OOOOOO++XXXXXXXXXXXXXXXXXXXXXXXX",
"XXXXXXXXXXXXXXXXXX++++OOOO    ++        ++        ++          ++          ++        ++        ++    OOOO++++XXXXXXXXXXXXXXXXXXXX",
"XXXXXXXXXXXXXXXXXX++++OOOO    ++        ++        ++          ++          ++        ++        ++    OOOO++++XXXXXXXXXXXXXXXXXXXX",
"XXXXXXXXXXXXXXXX++OO++OO      ++        ++        ++          ++          ++        ++        ++      OO++OO++XXXXXXXXXXXXXXXXXX",
"XXXXXXXXXXXXXXXX++OO++OO      ++        ++        ++          ++          ++        ++        ++      OO++OO++XXXXXXXXXXXXXXXXXX",
"XXXXXXXXXXXXXX++OOOO++        ++        ++        ++          ++          ++        ++        ++        ++OOOO++XXXXXXXXXXXXXXXX",
"XXXXXXXXXXXXXX++OOOO++        ++        ++        ++          ++          ++        ++        ++        ++OOOO++XXXXXXXXXXXXXXXX",
"XXXXXXXXXXXX++OOOO  ++        ++        ++        ++          ++          ++        ++        ++        ++  OOOO++XXXXXXXXXXXXXX",
"XXXXXXXXXXXX++OOOO  ++        ++        ++        ++          ++          ++        ++        ++        ++  OOOO++XXXXXXXXXXXXXX",
"XXXXXXXXXX++OOOO    ++        ++        ++        ++          ++          ++        ++        ++        ++    OOOO++XXXXXXXXXXXX",
"XXXXXXXXXX++OOOO    ++        ++        ++        ++          ++          ++        ++        ++        ++    OOOO++XXXXXXXXXXXX",
"XXXXXXXXXX++OO      ++        ++        ++        ++          ++          ++        ++        ++        ++      OO++XXXXXXXXXXXX",
"XXXXXXXXXX++OO      ++        ++        ++        ++          ++          ++        ++        ++        ++      OO++XXXXXXXXXXXX",
"XXXXXXXX++OOOO      ++        ++        ++        ++          ++          ++        ++        ++        ++      OOOO++XXXXXXXXXX",
"XXXXXXXX++OOOO      ++        ++        ++        ++          ++          ++        ++        ++        ++      OOOO++XXXXXXXXXX",
"XXXXXXXX++OO        ++        ++        ++        ++          ++          ++        ++        ++        ++        OOOO++XXXXXXXX",
"XXXXXXXX++OO        ++        ++        ++        ++          ++          ++        ++        ++        ++        OOOO++XXXXXXXX",
"XXXXXXXX++OO        ++        ++        ++        ++          ++          ++        ++        ++        ++          OO++XXXXXXXX",
"XXXXXXXX++OO        ++        ++        ++        ++          ++          ++        ++        ++        ++          OO++XXXXXXXX",
"XXXXXXXX++OO        ++        ++        ++        ++          ++          ++        ++        ++        ++          OO++XXXXXXXX",
"XXXXXXXX++OO        ++        ++        ++        ++          ++          ++        ++        ++        ++          OO++XXXXXXXX",
"XXXXXXXX++OO        ++        ++        ++        ++          ++          ++        ++        ++        ++          OO++XXXXXXXX",
"XXXXXXXX++OO        ++        ++        ++        ++          ++          ++        ++        ++        ++          OO++XXXXXXXX",
"XXXXXXXX++OO        ++        ++        ++        ++          ++          ++        ++        ++        ++          OO++XXXXXXXX",
"XXXXXXXX++OO        ++        ++        ++        ++          ++          ++        ++        ++        ++          OO++XXXXXXXX",
"XXXXXXXX++OO        ++        ++        ++        ++          ++          ++        ++        ++        ++          OO++XXXXXXXX",
"XXXXXXXX++OO        ++        ++        ++        ++          ++          ++        ++        ++        ++          OO++XXXXXXXX",
"XXXXXXXX++++++++++++++++++++++++++++++++++++++++++++++++++++++++++++++++++++++++++++++++++++++++++++++++++++++++++++++++XXXXXXXX",
"XXXXXXXX++++++++++++++++++++++++++++++++++++++++++++++++++++++++++++++++++++++++++++++++++++++++++++++++++++++++++++++++XXXXXXXX",
"XXXXXXXX++OO                                                                                                        OO++XXXXXXXX",
"XXXXXXXX++OO                                                                                                        OO++XXXXXXXX",
"XXXXXXXX++OO                                                                                                        OO++XXXXXXXX",
"XXXXXXXX++OO                                                                                                        OO++XXXXXXXX",
"XXXXXXXX++OO                                                                                                        OO++XXXXXXXX",
"XXXXXXXX++OO                                                                                                        OO++XXXXXXXX",
"XXXXXXXX++OO                                                                                                        OO++XXXXXXXX",
"XXXXXXXX++OO                                                                                                        OO++XXXXXXXX",
"XXXXXXXX++OO                                                                                                        OO++XXXXXXXX",
"XXXXXXXX++OO                                                                                                        OO++XXXXXXXX",
"XXXXXXXX++OO                                                                                                        OO++XXXXXXXX",
"XXXXXXXX++OO                                                                                                        OO++XXXXXXXX",
"XXXXXXXX++OO                                                                                                        OO++XXXXXXXX",
"XXXXXXXX++OO                                                                                                        OO++XXXXXXXX",
"XXXXXXXX++OO                                                                                                        OO++XXXXXXXX",
"XXXXXXXX++OO                                                                                                        OO++XXXXXXXX",
"XXXXXXXX++OO                                                                                                        OO++XXXXXXXX",
"XXXXXXXX++OO                                                                                                        OO++XXXXXXXX",
"XXXXXXXX++OO                                                                                                        OO++XXXXXXXX",
"XXXXXXXX++OO                                                                                                        OO++XXXXXXXX",
"XXXXXXXX++OO                                                                                                        OO++XXXXXXXX",
"XXXXXXXX++OO                                                                                                        OO++XXXXXXXX",
"XXXXXXXX++OO                                                                                                        OO++XXXXXXXX",
"XXXXXXXX++OO                                                                                                        OO++XXXXXXXX",
"XXXXXXXX++OO                                                                                                        OO++XXXXXXXX",
"XXXXXXXX++OO                                                                                                        OO++XXXXXXXX",
"XXXXXXXX++OO                                                                                                        OO++XXXXXXXX",
"XXXXXXXX++OO                                                                                                        OO++XXXXXXXX",
"XXXXXXXX++OO                                                                                                        OO++XXXXXXXX",
"XXXXXXXX++OO                                                                                                        OO++XXXXXXXX",
"XXXXXXXX++OO                                                                                                        OO++XXXXXXXX",
"XXXXXXXX++OO                                                                                                        OO++XXXXXXXX",
"XXXXXXXX++OO                                                                                                        OO++XXXXXXXX",
"XXXXXXXX++OO                                                                                                        OO++XXXXXXXX",
"XXXXXXXX++OO                                                                                                        OO++XXXXXXXX",
"XXXXXXXX++OO                                                                                                        OO++XXXXXXXX",
"XXXXXXXX++OO                                                                                                        OO++XXXXXXXX",
"XXXXXXXX++OO                                                                                                        OO++XXXXXXXX",
"XXXXXXXX++OO                                                                                                        OO++XXXXXXXX",
"XXXXXXXX++OO                                                                                                        OO++XXXXXXXX",
"XXXXXXXX++OO                                                                                                        OO++XXXXXXXX",
"XXXXXXXX++OO                                                                                                        OO++XXXXXXXX",
"XXXXXXXX++OO                                                                                                        OO++XXXXXXXX",
"XXXXXXXX++OO                                                                                                        OO++XXXXXXXX",
"XXXXXXXX++OO                                      ............................                                      OO++XXXXXXXX",
"XXXXXXXX++OO                                      ............................                                      OO++XXXXXXXX",
"XXXXXXXX++OO                              ..........................................                                OO++XXXXXXXX",
"XXXXXXXX++OO                              ..........................................                                OO++XXXXXXXX",
"XXXXXXXX++OO                        ..................oooooooooooooooooooo..................                        OO++XXXXXXXX",
"XXXXXXXX++OO                        ..................oooooooooooooooooooo..................                        OO++XXXXXXXX",
"XXXXXXXX++OO                  ................oooooooooooooooooooooooooooooooooooo................                  OO++XXXXXXXX",
"XXXXXXXX++OO                  ................oooooooooooooooooooooooooooooooooooo................                  OO++XXXXXXXX",
"XXXXXXXX++OO            ..............oooooooooooooooooooooooooooooooooooooooooooooooooooo..............            OO++XXXXXXXX",
"XXXXXXXX++OO            ..............oooooooooooooooooooooooooooooooooooooooooooooooooooo..............            OO++XXXXXXXX",
"XXXXXXXX++OO      ..............oooooooooooooooooooooooooooooooooooooooooooooooooooooooooooooooo..............      OO++XXXXXXXX",
"XXXXXXXX++OO      ..............oooooooooooooooooooooooooooooooooooooooooooooooooooooooooooooooo..............      OO++XXXXXXXX",
"XXXXXXXX++OO..............ooooooooooooooooooooooooooOOOOOOOOOOOOOOOOOOOOOOOOoooooooooooooooooooooooo................OO++XXXXXXXX",
"XXXXXXXX++OO..............ooooooooooooooooooooooooooOOOOOOOOOOOOOOOOOOOOOOOOoooooooooooooooooooooooo................OO++XXXXXXXX",
"XXXXXXXX++OO........ooooooooooooooooooooooooOOOOOOOOOOOOOOOOOOOOOOOOOOOOOOOOOOOOOOOOoooooooooooooooooooooooo........OO++XXXXXXXX",
"XXXXXXXX++OO........ooooooooooooooooooooooooOOOOOOOOOOOOOOOOOOOOOOOOOOOOOOOOOOOOOOOOoooooooooooooooooooooooo........OO++XXXXXXXX",
"XXXXXXXX++OO..ooooooooooooooooooooooooooOOOOOOOOOOOOOOOOOOOOOOOOOOOOOOOOOOOOOOOOOOOOOOOOoooooooooooooooooooooooooo..OO++XXXXXXXX",
"XXXXXXXX++OO..ooooooooooooooooooooooooooOOOOOOOOOOOOOOOOOOOOOOOOOOOOOOOOOOOOOOOOOOOOOOOOoooooooooooooooooooooooooo..OO++XXXXXXXX",
"XXXXXXXX++OOooooooooooooooooooooooooOOOOOOOOOOOOOOOOOOOOOOOOOOOOOOOOOOOOOOOOOOOOOOOOOOOOOOOOooooooooooooooooooooooooOO++XXXXXXXX",
"XXXXXXXX++OOooooooooooooooooooooooooOOOOOOOOOOOOOOOOOOOOOOOOOOOOOOOOOOOOOOOOOOOOOOOOOOOOOOOOooooooooooooooooooooooooOO++XXXXXXXX",
"XXXXXXXX++OOooooooooooooooooOOOOOOOOOOOOOOOOOOOOOOOOOOOOOOOOOOOOOOOOOOOOOOOOOOOOOOOOOOOOOOOOOOOOOOOOooooooooooooooooOO++XXXXXXXX",
"XXXXXXXX++OOooooooooooooooooOOOOOOOOOOOOOOOOOOOOOOOOOOOOOOOOOOOOOOOOOOOOOOOOOOOOOOOOOOOOOOOOOOOOOOOOooooooooooooooooOO++XXXXXXXX",
"XXXXXXXX++OOooooooooOOOOOOOOOOOOOOOOOOOOOOOOOOOOOOOOOOOOOOOOOOOOOOOOOOOOOOOOOOOOOOOOOOOOOOOOOOOOOOOOOOOOOOOOooooooooOO++XXXXXXXX",
"XXXXXXXX++OOooooooooOOOOOOOOOOOOOOOOOOOOOOOOOOOOOOOOOOOOOOOOOOOOOOOOOOOOOOOOOOOOOOOOOOOOOOOOOOOOOOOOOOOOOOOOooooooooOO++XXXXXXXX",
"XXXXXXXX++OOooooOOOOOOOOOOOOOOOOOOOOOOOOOOOOOOOOOOOOOOOOOOOOOOOOOOOOOOOOOOOOOOOOOOOOOOOOOOOOOOOOOOOOOOOOOOOOOOOOooooOO++XXXXXXXX",
"XXXXXXXX++OOooooOOOOOOOOOOOOOOOOOOOOOOOOOOOOOOOOOOOOOOOOOOOOOOOOOOOOOOOOOOOOOOOOOOOOOOOOOOOOOOOOOOOOOOOOOOOOOOOOooooOO++XXXXXXXX",
"XXXXXXXX++OOOOOOOOOOOOOOOOOOOOOOOOOOOOOOOOOOOOOOOOOOOOOOOOOOOOOOOOOOOOOOOOOOOOOOOOOOOOOOOOOOOOOOOOOOOOOOOOOOOOOOOOOOOO++XXXXXXXX",
"XXXXXXXX++OOOOOOOOOOOOOOOOOOOOOOOOOOOOOOOOOOOOOOOOOOOOOOOOOOOOOOOOOOOOOOOOOOOOOOOOOOOOOOOOOOOOOOOOOOOOOOOOOOOOOOOOOOOO++XXXXXXXX",
"XXXXXXXXXXXXXXXXXXXXXXXXXXXXXXXXXXXXXXXXXXXXXXXXXXXXXXXXXXXXXXXXXXXXXXXXXXXXXXXXXXXXXXXXXXXXXXXXXXXXXXXXXXXXXXXXXXXXXXXXXXXXXXXX",
"XXXXXXXXXXXXXXXXXXXXXXXXXXXXXXXXXXXXXXXXXXXXXXXXXXXXXXXXXXXXXXXXXXXXXXXXXXXXXXXXXXXXXXXXXXXXXXXXXXXXXXXXXXXXXXXXXXXXXXXXXXXXXXXX",
"XXXXXXXXXXXXXXXXXXXXXXXXXXXXXXXXXXXXXXXXXXXXXXXXXXXXXXXXXXXXXXXXXXXXXXXXXXXXXXXXXXXXXXXXXXXXXXXXXXXXXXXXXXXXXXXXXXXXXXXXXXXXXXXX",
"XXXXXXXXXXXXXXXXXXXXXXXXXXXXXXXXXXXXXXXXXXXXXXXXXXXXXXXXXXXXXXXXXXXXXXXXXXXXXXXXXXXXXXXXXXXXXXXXXXXXXXXXXXXXXXXXXXXXXXXXXXXXXXXX",
"XXXXXXXXXXXXXXXXXXXXXXXXXXXXXXXXXXXXXXXXXXXXXXXXXXXXXXXXXXXXXXXXXXXXXXXXXXXXXXXXXXXXXXXXXXXXXXXXXXXXXXXXXXXXXXXXXXXXXXXXXXXXXXXX",
"XXXXXXXXXXXXXXXXXXXXXXXXXXXXXXXXXXXXXXXXXXXXXXXXXXXXXXXXXXXXXXXXXXXXXXXXXXXXXXXXXXXXXXXXXXXXXXXXXXXXXXXXXXXXXXXXXXXXXXXXXXXXXXXX",
"XXXXXXXXXXXXXXXXXXXXXXXXXXXXXXXXXXXXXXXXXXXXXXXXXXXXXXXXXXXXXXXXXXXXXXXXXXXXXXXXXXXXXXXXXXXXXXXXXXXXXXXXXXXXXXXXXXXXXXXXXXXXXXXX",
"XXXXXXXXXXXXXXXXXXXXXXXXXXXXXXXXXXXXXXXXXXXXXXXXXXXXXXXXXXXXXXXXXXXXXXXXXXXXXXXXXXXXXXXXXXXXXXXXXXXXXXXXXXXXXXXXXXXXXXXXXXXXXXXX"
};
