/* XPM */
static char *af126bd0204a48cb8f5cd735778d1086nK5559IGFxptW6jg[] = {
/* columns rows colors chars-per-pixel */
"128 128 4 1 ",
"  c #1E1E3C",
". c #3D3E40",
"X c #57595C",
"o c #BBBBC7",
/* pixels */
"oooooooooooooooooooooooooooooooooooooooooooooooooooooooooooooooooooooooooooooooooooooooooooooooooooooooooooooooooooooooooooooooo",
"oooooooooooooooooooooooooooooooooooooooooooooooooooooooooooooooooooooooooooooooooooooooooooooooooooooooooooooooooooooooooooooooo",
"ooXXXXXXXXXXXXXXXXXXXXXXooXXXXXXXXXXXXXXXXXXXXXXXXXXXXXXXXXXXXooXXXXXXXXXXXXXXXXXXXXXXXXXXXXXXXXXXXXXXXXooXXXXXXXXXXXXXXXXXXXXoo",
"ooXXXXXXXXXXXXXXXXXXXXXXooXXXXXXXXXXXXXXXXXXXXXXXXXXXXXXXXXXXXooXXXXXXXXXXXXXXXXXXXXXXXXXXXXXXXXXXXXXXXXooXXXXXXXXXXXXXXXXXXXXoo",
"ooXXXXXXXXXXXXXXXXXXXXXXooXXXXXXXXXXXXXXXXXXXXXXXXXXXXXXXXXXXXooXXXXXXXXXXXXXXXX............XXXXXXXXXXXXooXXXXXXXXXXXXXXXXXXXXoo",
"ooXXXXXXXXXXXXXXXXXXXXXXooXXXXXXXXXXXXXXXXXXXXXXXXXXXXXXXXXXXXooXXXXXXXXXXXXXXXX............XXXXXXXXXXXXooXXXXXXXXXXXXXXXXXXXXoo",
"ooXXXXXXXXXXXXXX..XXXXXXooXXXXXXXXXXXXXXXX........XXXXXXXXXXXXooXXXXXX....XXXXXXXXXXXXXXXX....XXXXXXXXXXooXXXX........XXXXXXXXoo",
"ooXXXXXXXXXXXXXX..XXXXXXooXXXXXXXXXXXXXXXX........XXXXXXXXXXXXooXXXXXX....XXXXXXXXXXXXXXXX....XXXXXXXXXXooXXXX........XXXXXXXXoo",
"ooXXXX....XXXX....XXXXXXooXXXXXXXXXXXX......XX....XXXXXXXXXXXXooXXXXXXXXXXXXXXXXXXXXXXXXXXXX....XXXXXXXXooXX....XXXXXX....XXXXoo",
"ooXXXX....XXXX....XXXXXXooXXXXXXXXXXXX......XX....XXXXXXXXXXXXooXXXXXXXXXXXXXXXXXXXXXXXXXXXX....XXXXXXXXooXX....XXXXXX....XXXXoo",
"ooXXXX....XXXX....XXXXXXooXXXXXXXXXXXX......XX....XXXXXXXXXXXXooXXXXXXXXXXXXXXXXXXXXXXXXXXXX....XXXXXXXXooXXXXXXXXXXXXXX..XXXXoo",
"ooXXXX....XXXX....XXXXXXooXXXXXXXXXXXX......XX....XXXXXXXXXXXXooXXXXXXXXXXXXXXXXXXXXXXXXXXXX....XXXXXXXXooXXXXXXXXXXXXXX..XXXXoo",
"ooXXXXXX......XXXXXXXXXXooXXXXXXXXXXXXXXXXXXXX..........XXXXXXooXXXXXXXXXX..XXXXXXXXXXXXXXXXXXXX....XXXXooXXXXXXXXXXXXXXXXXXXXoo",
"ooXXXXXX......XXXXXXXXXXooXXXXXXXXXXXXXXXXXXXX..........XXXXXXooXXXXXXXXXX..XXXXXXXXXXXXXXXXXXXX....XXXXooXXXXXXXXXXXXXXXXXXXXoo",
"ooXXXXXXXXXXXXXXXXXXXXXXooXXXXXXXXXXXXXXXXXXXXXXXXXXXXXXXXXXXXooXXXXXXXXXXXXXXXXXXXXXXXXXXXXXXXXXXXXXXXXooXXXXXXXXXXXXXXXXXXXXoo",
"ooXXXXXXXXXXXXXXXXXXXXXXooXXXXXXXXXXXXXXXXXXXXXXXXXXXXXXXXXXXXooXXXXXXXXXXXXXXXXXXXXXXXXXXXXXXXXXXXXXXXXooXXXXXXXXXXXXXXXXXXXXoo",
"oooooooooooooooooooooooooooooooooooooooooooooooooooooooooooooooooooooooooooooooooooooooooooooooooooooooooooooooooooooooooooooooo",
"oooooooooooooooooooooooooooooooooooooooooooooooooooooooooooooooooooooooooooooooooooooooooooooooooooooooooooooooooooooooooooooooo",
"ooXXXXXXXXXXXXXXXXXXXXXXXXXXXXXXXXXXXXXXXXooXXXXXXXXXXXXXXXXXXXXXXXXXXXXXXXXXXXXXXXXooXXXXXXXXXXXXXXXXXXXXXXXXXXXXXXXXXXXXXXXXoo",
"ooXXXXXXXXXXXXXXXXXXXXXXXXXXXXXXXXXXXXXXXXooXXXXXXXXXXXXXXXXXXXXXXXXXXXXXXXXXXXXXXXXooXXXXXXXXXXXXXXXXXXXXXXXXXXXXXXXXXXXXXXXXoo",
"ooXXXXXXXXXXXXXXXXXXXXXXXXXXXXXX..XXXXXXXXooXXXXXXXXXXXXXXXXXXXXXXXX......XXXXXXXXXXooXXXXXXXXXXXXXXXXXXXX......XXXXXXXXXXXXXXoo",
"ooXXXXXXXXXXXXXXXXXXXXXXXXXXXXXX..XXXXXXXXooXXXXXXXXXXXXXXXXXXXXXXXX......XXXXXXXXXXooXXXXXXXXXXXXXXXXXXXX......XXXXXXXXXXXXXXoo",
"ooXXXXXXXX......XXXXXXXXXXXX..........XXXXooXXXXXXXXXXXXXXXXXXXXXX....XXXXXXXXXXXXXXooXXXX............XX....XX......XXXXXXXXXXoo",
"ooXXXXXXXX......XXXXXXXXXXXX..........XXXXooXXXXXXXXXXXXXXXXXXXXXX....XXXXXXXXXXXXXXooXXXX............XX....XX......XXXXXXXXXXoo",
"ooXXXXXXXXXXXXXXXXXXXX........XXXXXXXXXXXXooXXXXXXXXXX..............XXXXXXXXXXXXXXXXooXXXXXXXXXXXXXXXX....XXXXXXXXXXXXXXXXXXXXoo",
"ooXXXXXXXXXXXXXXXXXXXX........XXXXXXXXXXXXooXXXXXXXXXX..............XXXXXXXXXXXXXXXXooXXXXXXXXXXXXXXXX....XXXXXXXXXXXXXXXXXXXXoo",
"ooXXXXXXXXXXXXXXXX......XXXXXXXXXXXXXXXXXXooXXXXXXXXXXXXXXXXXXXXXXXXXXXXXXXXXXXXXXXXooXXXXXXXX..........XXXXXXXXXXXXXXXXXXXXXXoo",
"ooXXXXXXXXXXXXXXXX......XXXXXXXXXXXXXXXXXXooXXXXXXXXXXXXXXXXXXXXXXXXXXXXXXXXXXXXXXXXooXXXXXXXX..........XXXXXXXXXXXXXXXXXXXXXXoo",
"ooXXXXXXXXXXXXXXXX......XXXXXXXXXXXXXXXXXXooXXXXXXXXXXXXXXXXXXXXXXXXXXXXXXXXXXXXXXXXooXXXXXXXX..........XXXXXXXXXXXXXXXXXXXXXXoo",
"ooXXXXXXXXXXXXXXXX......XXXXXXXXXXXXXXXXXXooXXXXXXXXXXXXXXXXXXXXXXXXXXXXXXXXXXXXXXXXooXXXXXXXX..........XXXXXXXXXXXXXXXXXXXXXXoo",
"ooXXXXXXXXXXXXXXXXXXXXXXXXXXXXXXXXXXXXXXXXooXXXXXXXXXXXXXXXXXXXXXXXXXXXXXXXXXXXXXXXXooXXXXXXXXXXXXXXXXXXXXXXXXXXXXXXXXXXXXXXXXoo",
"ooXXXXXXXXXXXXXXXXXXXXXXXXXXXXXXXXXXXXXXXXooXXXXXXXXXXXXXXXXXXXXXXXXXXXXXXXXXXXXXXXXooXXXXXXXXXXXXXXXXXXXXXXXXXXXXXXXXXXXXXXXXoo",
"oooooooooooooooooooooooooooooooooooooooooooooooooooooooooooooooooooooooooooooooooooooooooooooooooooooooooooooooooooooooooooooooo",
"oooooooooooooooooooooooooooooooooooooooooooooooooooooooooooooooooooooooooooooooooooooooooooooooooooooooooooooooooooooooooooooooo",
"ooXXXXXXXXXXXXXXXXXXXXXXooXXXXXXXXXXXXXXXXXXXXXXXXXXXXXXXXXXXXooXXXXXXXXXXXXXXXXXXXXXXXXXXXXXXXXXXXXXXXXooXXXXXXXXXXXXXXXXXXXXoo",
"ooXXXXXXXXXXXXXXXXXXXXXXooXXXXXXXXXXXXXXXXXXXXXXXXXXXXXXXXXXXXooXXXXXXXXXXXXXXXXXXXXXXXXXXXXXXXXXXXXXXXXooXXXXXXXXXXXXXXXXXXXXoo",
"ooXXXXXXXXXXXXXXXXXXXXXXooXXXXXXXXXXXXXXXXXXXXXXXXXXXXXXXXXXXXooXXXXXXXXXXXXXXXXXXXXXXXXXXXXXXXXXXXXXXXXooXXXXXXXXXXXXXXXXXXXXoo",
"ooXXXXXXXXXXXXXXXXXXXXXXooXXXXXXXXXXXXXXXXXXXXXXXXXXXXXXXXXXXXooXXXXXXXXXXXXXXXXXXXXXXXXXXXXXXXXXXXXXXXXooXXXXXXXXXXXXXXXXXXXXoo",
"ooXXXXXX......XX......XXooXXXXXXXXXXXXXXXXXXXXXXXX........XXXXooXX..XXXXXXXXXX..........XXXXXXXXXXXXXXXXooXXXX......XXXX..XXXXoo",
"ooXXXXXX......XX......XXooXXXXXXXXXXXXXXXXXXXXXXXX........XXXXooXX..XXXXXXXXXX..........XXXXXXXXXXXXXXXXooXXXX......XXXX..XXXXoo",
"ooXXXXXXXX........XXXXXXooXXXXXX............XX....XXXXXXXXXXXXooXX........XX....XXXXXX............XXXXXXooXXXXXXXXXXXXXX..XXXXoo",
"ooXXXXXXXX........XXXXXXooXXXXXX............XX....XXXXXXXXXXXXooXX........XX....XXXXXX............XXXXXXooXXXXXXXXXXXXXX..XXXXoo",
"ooXXXXXXXXXXXXXXXXXXXXXXooXXXXXXXXXXXXXXXX......XXXXXXXXXXXXXXooXXXXXXXX......XXXXXXXXXXXXXXXXXXXXXXXXXXooXXXXXXXX........XXXXoo",
"ooXXXXXXXXXXXXXXXXXXXXXXooXXXXXXXXXXXXXXXX......XXXXXXXXXXXXXXooXXXXXXXX......XXXXXXXXXXXXXXXXXXXXXXXXXXooXXXXXXXX........XXXXoo",
"ooXXXXXXXXXXXXXXXXXXXXXXooXXXXXXXXXXXXXXXXXXXXXXXXXXXXXXXXXXXXooXXXXXXXXXXXXXXXXXXXXXXXXXXXXXXXXXXXXXXXXooXXXXXXXXXXXXXXXXXXXXoo",
"ooXXXXXXXXXXXXXXXXXXXXXXooXXXXXXXXXXXXXXXXXXXXXXXXXXXXXXXXXXXXooXXXXXXXXXXXXXXXXXXXXXXXXXXXXXXXXXXXXXXXXooXXXXXXXXXXXXXXXXXXXXoo",
"ooXXXXXXXXXXXXXXXXXXXXXXooXXXXXXXXXXXXXXXXXXXXXXXXXXXXXXXXXXXXooXXXXXXXXXXXXXXXXXXXXXXXXXXXXXXXXXXXXXXXXooXXXXXXXXXXXXXXXXXXXXoo",
"ooXXXXXXXXXXXXXXXXXXXXXXooXXXXXXXXXXXXXXXXXXXXXXXXXXXXXXXXXXXXooXXXXXXXXXXXXXXXXXXXXXXXXXXXXXXXXXXXXXXXXooXXXXXXXXXXXXXXXXXXXXoo",
"oooooooooooooooooooooooooooooooooooooooooooooooooooooooooooooooooooooooooooooooooooooooooooooooooooooooooooooooooooooooooooooooo",
"oooooooooooooooooooooooooooooooooooooooooooooooooooooooooooooooooooooooooooooooooooooooooooooooooooooooooooooooooooooooooooooooo",
"ooXXXXXXXXXXXXXXXXXXXXXXoo                                                                              ooXXXXXXXXXXXXXXXXXXXXoo",
"ooXXXXXXXXXXXXXXXXXXXXXXoo                                                                              ooXXXXXXXXXXXXXXXXXXXXoo",
"ooXXXXXXXXXXXXXXXXXXXXXXoo                                                                              ooXXXXXXXXXXXXXXXXXXXXoo",
"ooXXXXXXXXXXXXXXXXXXXXXXoo                                                                              ooXXXXXXXXXXXXXXXXXXXXoo",
"ooXXXXXXXXXXXX........XXoo                                                                              ooXX........XXXXXXXXXXoo",
"ooXXXXXXXXXXXX........XXoo                                                                              ooXX........XXXXXXXXXXoo",
"ooXXXXXXXXXXXXXXXXXX....oo                                                                              oo....XXXXXXXXXXXXXXXXoo",
"ooXXXXXXXXXXXXXXXXXX....oo                                                                              oo....XXXXXXXXXXXXXXXXoo",
"ooXXXXXXXXXXXXXXXXXXXX..oo                                                                              ooXXXXXXXXXXXXXXXXXXXXoo",
"ooXXXXXXXXXXXXXXXXXXXX..oo                                                                              ooXXXXXXXXXXXXXXXXXXXXoo",
"ooXXXXXXXXXXXXXXXXXXXXXXoo                                                                              ooXXXXXXXXXXXXXXXXXXXXoo",
"ooXXXXXXXXXXXXXXXXXXXXXXoo                                                                              ooXXXXXXXXXXXXXXXXXXXXoo",
"oooooooooooooooooooooooooo                                                                              oooooooooooooooooooooooo",
"oooooooooooooooooooooooooo                                                                              oooooooooooooooooooooooo",
"ooXXXXXXXXXXXXXXXXXXXXXXoo                                                                              ooXXXXXXXXXXXXXXXXXXXXoo",
"ooXXXXXXXXXXXXXXXXXXXXXXoo                                                                              ooXXXXXXXXXXXXXXXXXXXXoo",
"ooXXXXXXXXXXXXXXXXXXXXXXoo                                                                              ooXXXXXXXXXXXXXXXXXXXXoo",
"ooXXXXXXXXXXXXXXXXXXXXXXoo                                                                              ooXXXXXXXXXXXXXXXXXXXXoo",
"ooXXXXXXXXXXXXXXXXXXXXXXoo                                                                              ooXXXXXXXXXXXXXX....XXoo",
"ooXXXXXXXXXXXXXXXXXXXXXXoo                                                                              ooXXXXXXXXXXXXXX....XXoo",
"ooXXXX....XXXXXX....XXXXoo                                                                              ooXXXXXXXX........XXXXoo",
"ooXXXX....XXXXXX....XXXXoo                                                                              ooXXXXXXXX........XXXXoo",
"ooXXXXXX....XXXX..XXXXXXoo                                                                              ooXXXXXXXXXXXXXXXXXXXXoo",
"ooXXXXXX....XXXX..XXXXXXoo                                                                              ooXXXXXXXXXXXXXXXXXXXXoo",
"ooXXXXXXXX......XXXXXXXXoo                                                                              ooXXXXXXXXXXXXXXXXXXXXoo",
"ooXXXXXXXX......XXXXXXXXoo                                                                              ooXXXXXXXXXXXXXXXXXXXXoo",
"ooXXXXXXXXXXXXXXXXXXXXXXoo                                                                              ooXXXXXXXXXXXXXXXXXXXXoo",
"ooXXXXXXXXXXXXXXXXXXXXXXoo                                                                              ooXXXXXXXXXXXXXXXXXXXXoo",
"oooooooooooooooooooooooooooooooooooooooooooooooooooooooooooooooooooooooooooooooooooooooooooooooooooooooooooooooooooooooooooooooo",
"oooooooooooooooooooooooooooooooooooooooooooooooooooooooooooooooooooooooooooooooooooooooooooooooooooooooooooooooooooooooooooooooo",
"ooXXXXXXXXXXXXXXXXXXXXXXXXXXXXXXXXXXXXXXXXooXXXXXXXXXXXXXXXXXXXXXXXXXXXXXXXXXXXXXXXXooXXXXXXXXXXXXXXXXXXXXXXXXXXXXXXXXXXXXXXXXoo",
"ooXXXXXXXXXXXXXXXXXXXXXXXXXXXXXXXXXXXXXXXXooXXXXXXXXXXXXXXXXXXXXXXXXXXXXXXXXXXXXXXXXooXXXXXXXXXXXXXXXXXXXXXXXXXXXXXXXXXXXXXXXXoo",
"ooXXXXXXXXXXXXXXXXXXXXXXXXXXXXXXXXXXXXXXXXooXXXXXXXXXXXXXXXXXXXXXXXXXXXXXXXXXXXXXXXXooXXXXXXXXXXXXXXXXXXXXXXXXXXXXXXXXXXXXXXXXoo",
"ooXXXXXXXXXXXXXXXXXXXXXXXXXXXXXXXXXXXXXXXXooXXXXXXXXXXXXXXXXXXXXXXXXXXXXXXXXXXXXXXXXooXXXXXXXXXXXXXXXXXXXXXXXXXXXXXXXXXXXXXXXXoo",
"ooXXXXXXXX....XXXXXXXXXXXXXXXXXXXXXXXXXXXXooXXXXXXXXXXXXXXXXXX....XXXXXXXXXXXXXXXXXXooXXXXXXXXXXXXXXXXXXXXXXXXXXXXXXXXXXXXXXXXoo",
"ooXXXXXXXX....XXXXXXXXXXXXXXXXXXXXXXXXXXXXooXXXXXXXXXXXXXXXXXX....XXXXXXXXXXXXXXXXXXooXXXXXXXXXXXXXXXXXXXXXXXXXXXXXXXXXXXXXXXXoo",
"ooXXXX....XX..XXXXXXXX..........XXXXXXXXXXooXXXX..............XX......XXXXXXXXXXXXXXooXXXXXX..........XXXXXXXXXXXXXX....XXXXXXoo",
"ooXXXX....XX..XXXXXXXX..........XXXXXXXXXXooXXXX..............XX......XXXXXXXXXXXXXXooXXXXXX..........XXXXXXXXXXXXXX....XXXXXXoo",
"ooXXXXXXXXXX............XXXXXX....XXXXXXXXooXXXXXXXXXXXXXXXXXXXXXXXX..........XXXXXXooXXXXXXXXXXXXXX..................XXXXXXXXoo",
"ooXXXXXXXXXX............XXXXXX....XXXXXXXXooXXXXXXXXXXXXXXXXXXXXXXXX..........XXXXXXooXXXXXXXXXXXXXX..................XXXXXXXXoo",
"ooXXXXXXXXXXXXXXXXXXXXXXXXXXXXXXXXXXXXXXXXooXXXXXXXXXXXXXXXXXXXXXXXXXXXXXXXXXXXXXXXXooXX....XXXXXXXX....XXXXXXXXXXXXXXXXXXXXXXoo",
"ooXXXXXXXXXXXXXXXXXXXXXXXXXXXXXXXXXXXXXXXXooXXXXXXXXXXXXXXXXXXXXXXXXXXXXXXXXXXXXXXXXooXX....XXXXXXXX....XXXXXXXXXXXXXXXXXXXXXXoo",
"ooXXXXXXXXXXXXXXXXXXXXXXXXXXXXXXXXXXXXXXXXooXXXXXXXXXXXXXXXXXXXXXXXXXXXXXXXXXXXXXXXXooXXXXXXXXXXXXXXXXXXXXXXXXXXXXXXXXXXXXXXXXoo",
"ooXXXXXXXXXXXXXXXXXXXXXXXXXXXXXXXXXXXXXXXXooXXXXXXXXXXXXXXXXXXXXXXXXXXXXXXXXXXXXXXXXooXXXXXXXXXXXXXXXXXXXXXXXXXXXXXXXXXXXXXXXXoo",
"oooooooooooooooooooooooooooooooooooooooooooooooooooooooooooooooooooooooooooooooooooooooooooooooooooooooooooooooooooooooooooooooo",
"oooooooooooooooooooooooooooooooooooooooooooooooooooooooooooooooooooooooooooooooooooooooooooooooooooooooooooooooooooooooooooooooo",
"ooXXXXXXXXXXXXXXXXXXXXXXooXXXXXXXXXXXXXXXXXXXXXXXXXXXXXXXXXXXXooXXXXXXXXXXXXXXXXXXXXXXXXXXXXXXXXXXXXXXXXooXXXXXXXXXXXXXXXXXXXXoo",
"ooXXXXXXXXXXXXXXXXXXXXXXooXXXXXXXXXXXXXXXXXXXXXXXXXXXXXXXXXXXXooXXXXXXXXXXXXXXXXXXXXXXXXXXXXXXXXXXXXXXXXooXXXXXXXXXXXXXXXXXXXXoo",
"ooXX..XXXXXXXXXXXXXXXXXXooXXXXXXXXXXXXXXXXXXXXXXXXXXXXXXXXXXXXooXXXX..XXXXXX..........XXXXXXXXXXXXXXXXXXooXXXXXX..XXXXXXXXXXXXoo",
"ooXX..XXXXXXXXXXXXXXXXXXooXXXXXXXXXXXXXXXXXXXXXXXXXXXXXXXXXXXXooXXXX..XXXXXX..........XXXXXXXXXXXXXXXXXXooXXXXXX..XXXXXXXXXXXXoo",
"ooXX..XXXXXXXXXXXXXXXXXXooXXXXXXXXXXXXXXXXXXXXXXXXXXXXXXXXXXXXooXXXX..XXXXXX..........XXXXXXXXXXXXXXXXXXooXXXXXX..XXXXXXXXXXXXoo",
"ooXX..XXXXXXXXXXXXXXXXXXooXXXXXXXXXXXXXXXXXXXXXXXXXXXXXXXXXXXXooXXXX..XXXXXX..........XXXXXXXXXXXXXXXXXXooXXXXXX..XXXXXXXXXXXXoo",
"ooXX..............XXXXXXooXX......XXXXXX..........XXXXXXXXXXXXooXXXXXX........XXXXXX....XXXXXXXXXXXXXXXXooXXXXXX....XXXX..XXXXoo",
"ooXX..............XXXXXXooXX......XXXXXX..........XXXXXXXXXXXXooXXXXXX........XXXXXX....XXXXXXXXXXXXXXXXooXXXXXX....XXXX..XXXXoo",
"ooXXXX....XXXXXX..XXXXXXooXXXXXX..........XXXXXX..XX....XXXXXXooXXXXXXXXXXXXXXXXXXXXXX..........XXXXXXXXooXXXXXXXX........XXXXoo",
"ooXXXX....XXXXXX..XXXXXXooXXXXXX..........XXXXXX..XX....XXXXXXooXXXXXXXXXXXXXXXXXXXXXX..........XXXXXXXXooXXXXXXXX........XXXXoo",
"ooXXXXXXXXXXXXXX..XXXXXXooXXXXXXXX....XXXXXXXXXXXX....XXXXXXXXooXXXXXXXXXXXXXXXXXXXXXXXXXXXXXXXXXXXXXXXXooXX....XXXXXXXXXXXXXXoo",
"ooXXXXXXXXXXXXXX..XXXXXXooXXXXXXXX....XXXXXXXXXXXX....XXXXXXXXooXXXXXXXXXXXXXXXXXXXXXXXXXXXXXXXXXXXXXXXXooXX....XXXXXXXXXXXXXXoo",
"ooXXXXXXXXXXXXXXXXXXXXXXooXXXXXXXXXXXXXXXXXXXXXXXXXXXXXXXXXXXXooXXXXXXXXXXXXXXXXXXXXXXXXXXXXXXXXXXXXXXXXooXXXXXXXXXXXXXXXXXXXXoo",
"ooXXXXXXXXXXXXXXXXXXXXXXooXXXXXXXXXXXXXXXXXXXXXXXXXXXXXXXXXXXXooXXXXXXXXXXXXXXXXXXXXXXXXXXXXXXXXXXXXXXXXooXXXXXXXXXXXXXXXXXXXXoo",
"oooooooooooooooooooooooooooooooooooooooooooooooooooooooooooooooooooooooooooooooooooooooooooooooooooooooooooooooooooooooooooooooo",
"oooooooooooooooooooooooooooooooooooooooooooooooooooooooooooooooooooooooooooooooooooooooooooooooooooooooooooooooooooooooooooooooo",
"ooXXXXXXXXXXXXXXXXXXXXXXXXXXXXXXXXXXXXXXXXooXXXXXXXXXXXXXXXXXXXXXXXXXXXXXXXXXXXXXXXXooXXXXXXXXXXXXXXXXXXXXXXXXXXXXXXXXXXXXXXXXoo",
"ooXXXXXXXXXXXXXXXXXXXXXXXXXXXXXXXXXXXXXXXXooXXXXXXXXXXXXXXXXXXXXXXXXXXXXXXXXXXXXXXXXooXXXXXXXXXXXXXXXXXXXXXXXXXXXXXXXXXXXXXXXXoo",
"ooXXXXXXXXXXXXXXXXXXXXXXXXXXXX......XXXXXXooXXXX..XXXXXXXXXXXXXXXXXXXXXXXXXXXXXXXXXXooXXXXXXXXXXXX............XXXXXXXXXXXXXXXXoo",
"ooXXXXXXXXXXXXXXXXXXXXXXXXXXXX......XXXXXXooXXXX..XXXXXXXXXXXXXXXXXXXXXXXXXXXXXXXXXXooXXXXXXXXXXXX............XXXXXXXXXXXXXXXXoo",
"ooXX....XXXXXX........XXXXXXXXXXXX....XXXXooXXXX........XXXXXXXXXX........XXXXXXXXXXooXXXX..........XXXXXXXX..........XXXXXXXXoo",
"ooXX....XXXXXX........XXXXXXXXXXXX....XXXXooXXXX........XXXXXXXXXX........XXXXXXXXXXooXXXX..........XXXXXXXX..........XXXXXXXXoo",
"ooXX....XXXXXX........XXXXXXXXXXXX....XXXXooXXXX........XXXXXXXXXX........XXXXXXXXXXooXXXX..........XXXXXXXX..........XXXXXXXXoo",
"ooXX....XXXXXX........XXXXXXXXXXXX....XXXXooXXXX........XXXXXXXXXX........XXXXXXXXXXooXXXX..........XXXXXXXX..........XXXXXXXXoo",
"ooXXXX..........XXXX............XXXXXXXXXXooXXXXXXXXXX..............XXXX......XXXXXXooXXXXXXXXXX..XXXXXX..XXXXXXXXXX......XXXXoo",
"ooXXXX..........XXXX............XXXXXXXXXXooXXXXXXXXXX..............XXXX......XXXXXXooXXXXXXXXXX..XXXXXX..XXXXXXXXXX......XXXXoo",
"ooXXXXXXXXXXXXXXXXXXXXXXXXXXXXXXXXXXXXXXXXooXXXXXXXXXXXXXXXXXXXXXXXXXXXXXXXXXXXXXXXXooXXXXXXXXXXXXXX........XXXXXXXXXXXXXXXXXXoo",
"ooXXXXXXXXXXXXXXXXXXXXXXXXXXXXXXXXXXXXXXXXooXXXXXXXXXXXXXXXXXXXXXXXXXXXXXXXXXXXXXXXXooXXXXXXXXXXXXXX........XXXXXXXXXXXXXXXXXXoo",
"ooXXXXXXXXXXXXXXXXXXXXXXXXXXXXXXXXXXXXXXXXooXXXXXXXXXXXXXXXXXXXXXXXXXXXXXXXXXXXXXXXXooXXXXXXXXXXXXXXXXXXXXXXXXXXXXXXXXXXXXXXXXoo",
"ooXXXXXXXXXXXXXXXXXXXXXXXXXXXXXXXXXXXXXXXXooXXXXXXXXXXXXXXXXXXXXXXXXXXXXXXXXXXXXXXXXooXXXXXXXXXXXXXXXXXXXXXXXXXXXXXXXXXXXXXXXXoo",
"oooooooooooooooooooooooooooooooooooooooooooooooooooooooooooooooooooooooooooooooooooooooooooooooooooooooooooooooooooooooooooooooo",
"oooooooooooooooooooooooooooooooooooooooooooooooooooooooooooooooooooooooooooooooooooooooooooooooooooooooooooooooooooooooooooooooo"
};
