/* XPM */
static char *result[] = {
/* columns rows colors chars-per-pixel */
"128 128 3 1 ",
"  c #3D3E40",
". c #57595C",
"X c #BBBBC7",
/* pixels */
"XXXXXXXXXXXXXXXXXXXXXXXXXXXXXXXXXXXXXXXXXXXXXXXXXXXXXXXXXXXXXXXXXXXXXXXXXXXXXXXXXXXXXXXXXXXXXXXXXXXXXXXXXXXXXXXXXXXXXXXXXXXXXXXX",
"XXXXXXXXXXXXXXXXXXXXXXXXXXXXXXXXXXXXXXXXXXXXXXXXXXXXXXXXXXXXXXXXXXXXXXXXXXXXXXXXXXXXXXXXXXXXXXXXXXXXXXXXXXXXXXXXXXXXXXXXXXXXXXXX",
"XX......................XX....................................XX........................................XX....................XX",
"XX......................XX....................................XX........................................XX....................XX",
"XX......................XX....................................XX................            ............XX....................XX",
"XX......................XX....................................XX................            ............XX....................XX",
"XX..............  ......XX................        ............XX......    ................    ..........XX....        ........XX",
"XX..............  ......XX................        ............XX......    ................    ..........XX....        ........XX",
"XX....    ....    ......XX............      ..    ............XX............................    ........XX..    ......    ....XX",
"XX....    ....    ......XX............      ..    ............XX............................    ........XX..    ......    ....XX",
"XX....    ....    ......XX............      ..    ............XX............................    ........XX..............  ....XX",
"XX....    ....    ......XX............      ..    ............XX............................    ........XX..............  ....XX",
"XX......      ..........XX....................          ......XX..........  ....................    ....XX....................XX",
"XX......      ..........XX....................          ......XX..........  ....................    ....XX....................XX",
"XX......................XX....................................XX........................................XX....................XX",
"XX......................XX....................................XX........................................XX....................XX",
"XXXXXXXXXXXXXXXXXXXXXXXXXXXXXXXXXXXXXXXXXXXXXXXXXXXXXXXXXXXXXXXXXXXXXXXXXXXXXXXXXXXXXXXXXXXXXXXXXXXXXXXXXXXXXXXXXXXXXXXXXXXXXXXX",
"XXXXXXXXXXXXXXXXXXXXXXXXXXXXXXXXXXXXXXXXXXXXXXXXXXXXXXXXXXXXXXXXXXXXXXXXXXXXXXXXXXXXXXXXXXXXXXXXXXXXXXXXXXXXXXXXXXXXXXXXXXXXXXXX",
"XX........................................XX........................................XX........................................XX",
"XX........................................XX........................................XX........................................XX",
"XX..............................  ........XX........................      ..........XX....................      ..............XX",
"XX..............................  ........XX........................      ..........XX....................      ..............XX",
"XX........      ............          ....XX......................    ..............XX....            ..    ..      ..........XX",
"XX........      ............          ....XX......................    ..............XX....            ..    ..      ..........XX",
"XX....................        ............XX..........              ................XX................    ....................XX",
"XX....................        ............XX..........              ................XX................    ....................XX",
"XX................      ..................XX........................................XX........          ......................XX",
"XX................      ..................XX........................................XX........          ......................XX",
"XX................      ..................XX........................................XX........          ......................XX",
"XX................      ..................XX........................................XX........          ......................XX",
"XX........................................XX........................................XX........................................XX",
"XX........................................XX........................................XX........................................XX",
"XXXXXXXXXXXXXXXXXXXXXXXXXXXXXXXXXXXXXXXXXXXXXXXXXXXXXXXXXXXXXXXXXXXXXXXXXXXXXXXXXXXXXXXXXXXXXXXXXXXXXXXXXXXXXXXXXXXXXXXXXXXXXXXX",
"XXXXXXXXXXXXXXXXXXXXXXXXXXXXXXXXXXXXXXXXXXXXXXXXXXXXXXXXXXXXXXXXXXXXXXXXXXXXXXXXXXXXXXXXXXXXXXXXXXXXXXXXXXXXXXXXXXXXXXXXXXXXXXXX",
"XX......................XX....................................XX........................................XX....................XX",
"XX......................XX....................................XX........................................XX....................XX",
"XX......................XX....................................XX........................................XX....................XX",
"XX......................XX....................................XX........................................XX....................XX",
"XX......      ..      ..XX........................        ....XX..  ..........          ................XX....      ....  ....XX",
"XX......      ..      ..XX........................        ....XX..  ..........          ................XX....      ....  ....XX",
"XX........        ......XX......            ..    ............XX..        ..    ......            ......XX..............  ....XX",
"XX........        ......XX......            ..    ............XX..        ..    ......            ......XX..............  ....XX",
"XX......................XX................      ..............XX........      ..........................XX........        ....XX",
"XX......................XX................      ..............XX........      ..........................XX........        ....XX",
"XX......................XX....................................XX........................................XX....................XX",
"XX......................XX....................................XX........................................XX....................XX",
"XX......................XX....................................XX........................................XX....................XX",
"XX......................XX....................................XX........................................XX....................XX",
"XXXXXXXXXXXXXXXXXXXXXXXXXXXXXXXXXXXXXXXXXXXXXXXXXXXXXXXXXXXXXXXXXXXXXXXXXXXXXXXXXXXXXXXXXXXXXXXXXXXXXXXXXXXXXXXXXXXXXXXXXXXXXXXX",
"XXXXXXXXXXXXXXXXXXXXXXXXXXXXXXXXXXXXXXXXXXXXXXXXXXXXXXXXXXXXXXXXXXXXXXXXXXXXXXXXXXXXXXXXXXXXXXXXXXXXXXXXXXXXXXXXXXXXXXXXXXXXXXXX",
"XX........................................XX........................................XX........................................XX",
"XX........................................XX........................................XX........................................XX",
"XX........................................XX....      ..............................XX........................................XX",
"XX........................................XX....      ..............................XX........................................XX",
"XX............        ......      ........XX..........      ........      ..........XX....      ............        ..........XX",
"XX............        ......      ........XX..........      ........      ..........XX....      ............        ..........XX",
"XX..................        ..............XX..............            ..      ......XX........                ................XX",
"XX..................        ..............XX..............            ..      ......XX........                ................XX",
"XX....................  ..................XX................  ......................XX........................................XX",
"XX....................  ..................XX................  ......................XX........................................XX",
"XX........................................XX........................................XX........................................XX",
"XX........................................XX........................................XX........................................XX",
"XXXXXXXXXXXXXXXXXXXXXXXXXXXXXXXXXXXXXXXXXXXXXXXXXXXXXXXXXXXXXXXXXXXXXXXXXXXXXXXXXXXXXXXXXXXXXXXXXXXXXXXXXXXXXXXXXXXXXXXXXXXXXXXX",
"XXXXXXXXXXXXXXXXXXXXXXXXXXXXXXXXXXXXXXXXXXXXXXXXXXXXXXXXXXXXXXXXXXXXXXXXXXXXXXXXXXXXXXXXXXXXXXXXXXXXXXXXXXXXXXXXXXXXXXXXXXXXXXXX",
"XX......................XX....................................XX........................................XX....................XX",
"XX......................XX....................................XX........................................XX....................XX",
"XX......................XX....................................XX........................................XX....................XX",
"XX......................XX....................................XX........................................XX....................XX",
"XX......................XX....................................XX........................................XX..............    ..XX",
"XX......................XX....................................XX........................................XX..............    ..XX",
"XX....    ......    ....XX....                ................XX......  ..........        ..............XX........        ....XX",
"XX....    ......    ....XX....                ................XX......  ..........        ..............XX........        ....XX",
"XX......    ....  ......XX....................        ........XX......    ..        ......      ........XX....................XX",
"XX......    ....  ......XX....................        ........XX......    ..        ......      ........XX....................XX",
"XX........      ........XX..........................  ........XX........      ..........................XX....................XX",
"XX........      ........XX..........................  ........XX........      ..........................XX....................XX",
"XX......................XX....................................XX........................................XX....................XX",
"XX......................XX....................................XX........................................XX....................XX",
"XXXXXXXXXXXXXXXXXXXXXXXXXXXXXXXXXXXXXXXXXXXXXXXXXXXXXXXXXXXXXXXXXXXXXXXXXXXXXXXXXXXXXXXXXXXXXXXXXXXXXXXXXXXXXXXXXXXXXXXXXXXXXXXX",
"XXXXXXXXXXXXXXXXXXXXXXXXXXXXXXXXXXXXXXXXXXXXXXXXXXXXXXXXXXXXXXXXXXXXXXXXXXXXXXXXXXXXXXXXXXXXXXXXXXXXXXXXXXXXXXXXXXXXXXXXXXXXXXXX",
"XX........................................XX........................................XX........................................XX",
"XX........................................XX........................................XX........................................XX",
"XX........................................XX........................................XX........................................XX",
"XX........................................XX........................................XX........................................XX",
"XX........    ............................XX..................    ..................XX........................................XX",
"XX........    ............................XX..................    ..................XX........................................XX",
"XX....    ..  ........          ..........XX....              ..      ..............XX......          ..............    ......XX",
"XX....    ..  ........          ..........XX....              ..      ..............XX......          ..............    ......XX",
"XX..........            ......    ........XX........................          ......XX..............                  ........XX",
"XX..........            ......    ........XX........................          ......XX..............                  ........XX",
"XX........................................XX........................................XX..    ........    ......................XX",
"XX........................................XX........................................XX..    ........    ......................XX",
"XX........................................XX........................................XX........................................XX",
"XX........................................XX........................................XX........................................XX",
"XXXXXXXXXXXXXXXXXXXXXXXXXXXXXXXXXXXXXXXXXXXXXXXXXXXXXXXXXXXXXXXXXXXXXXXXXXXXXXXXXXXXXXXXXXXXXXXXXXXXXXXXXXXXXXXXXXXXXXXXXXXXXXXX",
"XXXXXXXXXXXXXXXXXXXXXXXXXXXXXXXXXXXXXXXXXXXXXXXXXXXXXXXXXXXXXXXXXXXXXXXXXXXXXXXXXXXXXXXXXXXXXXXXXXXXXXXXXXXXXXXXXXXXXXXXXXXXXXXX",
"XX......................XX....................................XX........................................XX....................XX",
"XX......................XX....................................XX........................................XX....................XX",
"XX..  ..................XX....................................XX....  ......          ..................XX......  ............XX",
"XX..  ..................XX....................................XX....  ......          ..................XX......  ............XX",
"XX..  ..................XX....................................XX....  ......          ..................XX......  ............XX",
"XX..  ..................XX....................................XX....  ......          ..................XX......  ............XX",
"XX..              ......XX..      ......          ............XX......        ......    ................XX......    ....  ....XX",
"XX..              ......XX..      ......          ............XX......        ......    ................XX......    ....  ....XX",
"XX....    ......  ......XX......          ......  ..    ......XX......................          ........XX........        ....XX",
"XX....    ......  ......XX......          ......  ..    ......XX......................          ........XX........        ....XX",
"XX..............  ......XX........    ............    ........XX........................................XX..    ..............XX",
"XX..............  ......XX........    ............    ........XX........................................XX..    ..............XX",
"XX......................XX....................................XX........................................XX....................XX",
"XX......................XX....................................XX........................................XX....................XX",
"XXXXXXXXXXXXXXXXXXXXXXXXXXXXXXXXXXXXXXXXXXXXXXXXXXXXXXXXXXXXXXXXXXXXXXXXXXXXXXXXXXXXXXXXXXXXXXXXXXXXXXXXXXXXXXXXXXXXXXXXXXXXXXXX",
"XXXXXXXXXXXXXXXXXXXXXXXXXXXXXXXXXXXXXXXXXXXXXXXXXXXXXXXXXXXXXXXXXXXXXXXXXXXXXXXXXXXXXXXXXXXXXXXXXXXXXXXXXXXXXXXXXXXXXXXXXXXXXXXX",
"XX........................................XX........................................XX........................................XX",
"XX........................................XX........................................XX........................................XX",
"XX............................      ......XX....  ..................................XX............            ................XX",
"XX............................      ......XX....  ..................................XX............            ................XX",
"XX..    ......        ............    ....XX....        ..........        ..........XX....          ........          ........XX",
"XX..    ......        ............    ....XX....        ..........        ..........XX....          ........          ........XX",
"XX..    ......        ............    ....XX....        ..........        ..........XX....          ........          ........XX",
"XX..    ......        ............    ....XX....        ..........        ..........XX....          ........          ........XX",
"XX....          ....            ..........XX..........              ....      ......XX..........  ......  ..........      ....XX",
"XX....          ....            ..........XX..........              ....      ......XX..........  ......  ..........      ....XX",
"XX........................................XX........................................XX..............        ..................XX",
"XX........................................XX........................................XX..............        ..................XX",
"XX........................................XX........................................XX........................................XX",
"XX........................................XX........................................XX........................................XX",
"XXXXXXXXXXXXXXXXXXXXXXXXXXXXXXXXXXXXXXXXXXXXXXXXXXXXXXXXXXXXXXXXXXXXXXXXXXXXXXXXXXXXXXXXXXXXXXXXXXXXXXXXXXXXXXXXXXXXXXXXXXXXXXXX",
"XXXXXXXXXXXXXXXXXXXXXXXXXXXXXXXXXXXXXXXXXXXXXXXXXXXXXXXXXXXXXXXXXXXXXXXXXXXXXXXXXXXXXXXXXXXXXXXXXXXXXXXXXXXXXXXXXXXXXXXXXXXXXXXX"
};
