/* XPM */
static char *result[] = {
/* columns rows colors chars-per-pixel */
"64 64 110 2 ",
"   c #1E1E3C",
".  c #1F1F3C",
"X  c #201F3C",
"o  c #24233A",
"O  c #25243A",
"+  c #25253A",
"@  c #282739",
"#  c #292839",
"$  c #2A2939",
"%  c #2B2A39",
"&  c #2E2E38",
"*  c #323137",
"=  c #373635",
"-  c #393735",
";  c #3E3C33",
":  c #3C3A34",
">  c #413F33",
",  c #4F4C2F",
"<  c #4F4D2F",
"1  c #514F2E",
"2  c #504E2F",
"3  c #56522D",
"4  c #5B582C",
"5  c #444232",
"6  c #454332",
"7  c #474531",
"8  c #4B4930",
"9  c #6B6727",
"0  c #6C6827",
"q  c #6E6A27",
"w  c #716C26",
"e  c #918B1D",
"r  c #938D1D",
"t  c #928C1E",
"y  c #A7A51E",
"u  c #A9A71D",
"i  c #A8A61E",
"p  c #A9A71E",
"a  c #AFAC1B",
"s  c #AAA81D",
"d  c #ABA81D",
"f  c #ACA91D",
"g  c #AEAB1C",
"h  c #B5AC14",
"j  c #B3AF19",
"k  c #B0AD1B",
"l  c #B2AF1A",
"z  c #BEB612",
"x  c #B8B317",
"c  c #BAB416",
"v  c #BCB514",
"b  c #BCB717",
"n  c #BEB916",
"m  c #B5B018",
"M  c #B4B019",
"N  c #B5B119",
"B  c #B6B219",
"V  c #999923",
"C  c #9A9A22",
"Z  c #9B9B22",
"A  c #9A9A23",
"S  c #9C9B22",
"D  c #9D9D21",
"F  c #9E9D21",
"G  c #9F9E21",
"H  c #9C9C22",
"J  c #A1A020",
"K  c #A2A120",
"L  c #C0B611",
"P  c #C5BD11",
"I  c #C1BC15",
"U  c #CAC10F",
"Y  c #CEC40D",
"T  c #D1C70C",
"R  c #D1C80D",
"E  c #D1C90F",
"W  c #D6CE0E",
"Q  c #D7CF0E",
"!  c #DFD50A",
"~  c #DED50B",
"^  c #D8D00D",
"/  c #DAD10C",
"(  c #DAD20D",
")  c #DCD30C",
"_  c #C9C110",
"`  c #CDC711",
"'  c #CEC711",
"]  c #E1D80A",
"[  c #E3DA0A",
"{  c #E4DA09",
"}  c #E7DD08",
"|  c #E9DF08",
" . c #EAE007",
".. c #EEE305",
"X. c #EDE206",
"o. c #EEE306",
"O. c #EFE405",
"+. c #F2E704",
"@. c #F3E704",
"#. c #F2E605",
"$. c #F5E903",
"%. c #F7EB03",
"&. c #F8EB02",
"*. c #FBEE01",
"=. c #F8EC02",
"-. c #FAEE02",
";. c #FCEF01",
":. c #FDF001",
">. c #FEF100",
",. c #FFF200",
/* pixels */
"                                                                                                                                ",
"                                                                                                                                ",
"                                                                                                                                ",
"                                                                                                                                ",
"                                                                                                                                ",
"                                            X + + + $.;.;.;.;.;.;.;.;.;.;.+ + o .                                               ",
"                                        7 , w | | | Z V V V V V V V V V V | | _ q , ,                                           ",
"                                  % 8 8 R  .^ V V V V V V V V V V V V V V V V u /  . .8 :                                       ",
"                                  2 T T j g u V V V V V V V V V V V V V V V V D u g g T r                                       ",
"                                & P a a H V V V V V V V V V V V V V V V V V V V V V V a c Y <                                   ",
"                                O.Z V V V V V V V V V V V V V V V V V V V V V V V V V V A H ~ *                                 ",
"                        $ > z O.V V V V V V V V V V V V V V V V V V V V V V V V V V V V V V V } ! =                             ",
"                      $ t ) f V V V V V V V V V V V V V V V V V V V V V V V V V V V V V V V V V G v 9 -                         ",
"                      > ) V V V V V V V V V V V V V V V V V V V V V V V V V V V V V V V V V V V V B ,.9                         ",
"                      z f V V V V V V V V V V V V V V V V V V V V V V V V V V V V V V V V V V V V J B v =                       ",
"                      O.V V V V V V V V V V V V V V V V V V V V V V V V V V V V V V V V V V V V V V V ) >                       ",
"                  & O.V V V V V V V V V V V V V V V K K K K K K K K K K K V V V V V V V V V V V V V V V } *                     ",
"              % 2 P Z V V V V V V V V V V V V G k B :.,.,.,.,.,.,.,.,.,.,.B a V V V V V V V V V V V V V V ~ <                   ",
"              8 T a V V V V V V V V V V V V V g  .,.,.,.,.,.,.,.,.,.,.,.,.,.| V V V V V V V V V V V V V V H Y                   ",
"              8 T a V V V V V V V V V V V V i [ =.,.,.,.,.,.,.,.,.,.,.,.,.,.%.' y V V V V V V V V V V V V H Y                   ",
"            7 R j H V V V V V V V V V V V S @.,.,.,.,.p p p p p p p p ] ,.,.,.;.+.f V V V V V V V V V V V V M h 5               ",
"            ,  .g V V V V V V V V V V V S ,.,.,.,.:.H V V V V V V V V V V H :.,.,.,.H V V V V V V V V V V V a T 8               ",
"          X w ^ u V V V V V V V V V V i @.,.,.-.X.s V V V V V V V V V V V V s | | | Z V V V V V V V V V V V s _ q #             ",
"          + | V V V V V V V V V V V V ) ,.,.-./ u V V V V V V V V V V V V V V V V V V V V V V V V V V V V V V g  .,             ",
"          + | V V V V V V V V V V V V ) ,.,.X.u D V V V V V V V V V V V V V V V V V V V V V V V V V V V V V V g  .,             ",
"          + | V V V V V V V V V V a | %.,.:.s V V V V V V V V V V V V V V V V V V V V V V V V V V V V V V V V g  .,             ",
"          $.Z V V V V V V V V V V B ,.,.,.H V V V V V V V V V V V V V V V V V V V V V V V V V V V V V V V V V A S { O           ",
"          ;.V V V V V V V V V V K ,.,.,.#.V V V V V V V V V V V V V V V V V V V V V V V V V V V V V V V V V V V V | +           ",
"          ;.V V V V V V V V V V K ,.,.,.p V V V V V V V V V V V V V V V V V V V V V V V V V V V V V V V V V V V V | +           ",
"          ;.V V V V V V V V V V K ,.,.,.p V V V V V V V V V V V V V V V V V V V V V V V V V V V V V V V V V V V V | +           ",
"          ;.V V V V V V V V V V K ,.,.,.p V V V V V V V V V V V V V V V V V V V V V V V V V V V V V V V V V V V V | +           ",
"          ;.V V V V V V V V V V K ,.,.,.p V V V V V V V V V V V V V V V V V V V V V V V V V V V V V V V V V V V V | +           ",
"          ;.V V V V V V V V V V K ,.,.,.p V V V V V V V V V V V V V V V V V V V V V V V V V V V V V V V V V V V V | +           ",
"          ;.V V V V V V V V V V K ,.,.,.p V V V V V V V V V V V V V V V V V V V V V V V V V V V V V V V V V V V V | +           ",
"          ;.V V V V V V V V V V K ,.,.,.p V V V V V V V V V V V V V V V V V V V V V V V V V V V V V V V V V V V V | +           ",
"          ;.V V V V V V V V V V K ,.,.,.] V V V V V V V V V V V V V V V V V V V V V V V V V V V V V V V V V V V V | +           ",
"          ;.V V V V V V V V V V C I ,.,.,.V V V V V V V V V V V V V V V V V V V V V V V V V V V V V V V V V V V V | +           ",
"          + | V V V V V V V V V V N ;.>.,.;.Z V V V V V V V V V V V V V V V V V V V V V V V V V V V V V V V V g  .,             ",
"          + | V V V V V V V V V V V V ) ,.,.o.d F V V V V V V V V V V V V V V V V V V V V V V V V V V V V V V g  .,             ",
"          o _ u D V V V V V V V V V V ' ;.,.,...n F V V V V V V V V V V V V F g g g A V V V V V V V V V V V F m U 6             ",
"          . q / u V V V V V V V V V V y +.,.,.*...d V V V V V V V V V V V V d  . . .S V V V V V V V V V V V d U 0 @             ",
"            ,  .g V V V V V V V V V V V f ,.,.,.,.o.Z V V V V V V V V V V Z o.,.,.,.H V V V V V V V V V V V a T 8               ",
"            ,  .g V V V V V V V V V V V V G ,.,.,.,.;.V V V V V V V V ( ;.;.,.,.,.l V V V V V V V V V V V V a T 8               ",
"              8 T a V V V V V V V V V V V V f +.;.,.,.,.,.,.,.,.,.,.,.,.,.,.;.~ s V V V V V V V V V V V V H Y                   ",
"              : r c A V V V V V V V V V V V V y ' ) >.,.,.,.,.,.,.,.,.,.,.) ` V V V V V V V V V V V V V V b e                   ",
"                  Y H V V V V V V V V V V V V V V V ;.,.,.,.,.,.,.,.,.,.,.V V V V V V V V V V V V V V V V &.                    ",
"                  < ~ V V V V V V V V V V V V V V V N B B B B B B B B B B V V V V V V V V V V V V V V V Q 4                     ",
"                    * } V V V V V V V V V V V V V V V V V V V V V V V V V V V V V V V V V V V V V V V W 1                       ",
"                      ! G V V V V V V V V V V V V V V V V V V V V V V V V V V V V V V V V V V V V S K E ;                       ",
"                      = v B J V V V V V V V V V V V V V V V V V V V V V V V V V V V V V V V V V S x L 3                         ",
"                        9 ,.B V V V V V V V V V V V V V V V V V V V V V V V V V V V V V V V V V K L                             ",
"                        - 9 v ) V V V V V V V V V V V V V V V V V V V V V V V V V V V V V V V W E 3                             ",
"                            = > } V V V V V V V V V V V V V V V V V V V V V V V V V V V V V Q 1 ;                               ",
"                                * ~ H H V V V V V V V V V V V V V V V V V V V V V V V H b &.4                                   ",
"                                  < Y Y M a s V V V V V V V V V V V V V V V V F d a a Y e                                       ",
"                                        h T _ g g g A V V V V V V V V V V g g m U T T                                           ",
"                                        5 8 q  . . .S V V V V V V V V V V  . .U 0 8 8                                           ",
"                                            # , , , { | | | | | | | | | | , , 6 @                                               ",
"                                                    O + + + + + + + + + +                                                       ",
"                                                                                                                                ",
"                                                                                                                                ",
"                                                                                                                                ",
"                                                                                                                                ",
"                                                                                                                                "
};
