/* XPM */
static char *result[] = {
/* columns rows colors chars-per-pixel */
"64 64 141 2 ",
"   c black",
".  c #010101",
"X  c #020202",
"o  c gray1",
"O  c #040404",
"+  c gray2",
"@  c #060606",
"#  c #090809",
"$  c #090909",
"%  c #0B0A0B",
"&  c #0B0B0B",
"*  c gray5",
"=  c #0E0E0E",
"-  c gray6",
";  c #100F10",
":  c #111111",
">  c #131313",
",  c gray8",
"<  c #151515",
"1  c #161516",
"2  c #161616",
"3  c #1A191A",
"4  c #1C1B1C",
"5  c #1D1C1D",
"6  c #1E1D1E",
"7  c #1E1E1E",
"8  c #1F1E1F",
"9  c gray12",
"0  c #1E1E3C",
"q  c #201F20",
"w  c #212021",
"e  c #222122",
"r  c #242324",
"t  c #252525",
"y  c #262526",
"u  c #272727",
"i  c #292829",
"p  c #2A292A",
"a  c gray17",
"s  c #2C2C2C",
"d  c #2D2C2D",
"f  c #2E2D2E",
"g  c #2F2E2F",
"h  c #2F2F2F",
"j  c #20203D",
"k  c #21213F",
"l  c #22223F",
"z  c #302F30",
"x  c #313031",
"c  c #323232",
"v  c #333233",
"b  c gray20",
"n  c #343334",
"m  c #353435",
"M  c #353535",
"N  c gray21",
"B  c gray22",
"V  c #393939",
"C  c #3C3C3C",
"Z  c #3D3C3D",
"A  c #232340",
"S  c #282844",
"D  c #292945",
"F  c #2A2A45",
"G  c #30304B",
"H  c #31314B",
"J  c #36364F",
"K  c #3C3C54",
"L  c #3F3F56",
"P  c #414041",
"I  c #414141",
"U  c gray26",
"Y  c #434243",
"T  c #434343",
"R  c #404044",
"E  c #444444",
"W  c gray27",
"Q  c #464646",
"!  c #484848",
"~  c #494949",
"^  c #4C4C4C",
"/  c gray30",
"(  c #47475D",
")  c #48485D",
"_  c #4B4B5F",
"`  c #555555",
"'  c #565656",
"]  c gray34",
"[  c #5A5A5A",
"{  c #5B5B5B",
"}  c gray36",
"|  c gray37",
" . c #5F5F5F",
".. c #4C4C60",
"X. c #5E5E6E",
"o. c #5F5F6E",
"O. c #626262",
"+. c gray39",
"@. c #6C6C6E",
"#. c #6B6B7A",
"$. c #7D7D88",
"%. c #808080",
"&. c #818185",
"*. c #828286",
"=. c #848484",
"-. c #828288",
";. c #828289",
":. c #80808A",
">. c #80808B",
",. c #8D8D8D",
"<. c gray56",
"1. c #898991",
"2. c #8B8B90",
"3. c #8D8D92",
"4. c #8F8F97",
"5. c #959595",
"6. c #959597",
"7. c #95959C",
"8. c #989898",
"9. c #9B9B9B",
"0. c gray61",
"q. c #9D9D9D",
"w. c gray62",
"e. c #9D9DA1",
"r. c #9F9FA0",
"t. c #A0A0A0",
"y. c gray63",
"u. c gray64",
"i. c #A4A4A4",
"p. c gray65",
"a. c #A7A7A7",
"s. c #AAAAAA",
"d. c gray67",
"f. c #ABABAD",
"g. c #ACACAC",
"h. c #AEAEAE",
"j. c #AFAFB0",
"k. c gray69",
"l. c #B1B1B1",
"z. c #B2B2B2",
"x. c gray70",
/* pixels */
"0 0 0 0 0 0 0 0 0 0 0 0 0 0 0 0 0 0 0 0 0 0 0 0 0 0 0 0 0 0 0 0 0 0 0 0 0 0 0 0 0 0 0 0 0 0 0 0 0 0 0 0 0 0 0 0 0 0 0 0 0 0 0 0 ",
"0 0 0 0 0 0 0 0 0 0 0 0 0 0 0 0 0 0 0 0 0 0 0 0 0 0 0 0 0 0 0 0 0 0 0 0 0 0 0 0 0 0 0 0 0 0 0 0 0 0 0 0 0 0 0 0 0 0 0 0 0 0 0 0 ",
"0 0 0 0 0 0 0 0 0 0 0 0 0 0 0 0 0 0 0 0 0 0 0 0 0 0 0 0 0 0 0 0 0 0 0 0 0 0 0 0 0 0 0 0 0 0 0 0 0 0 0 0 0 0 0 0 0 0 0 0 0 0 0 0 ",
"0 0 0 0 0 0 0 0 0 0 0 0 0 0 0 0 0 0 0 0 0 0 0 0 0 #.>.>.>.>.>.>.>.>.>.>.>.$.0 0 0 0 0 0 0 0 0 0 0 0 0 0 0 0 0 0 0 0 0 0 0 0 0 0 ",
"0 0 0 0 0 0 0 0 0 0 0 0 0 0 0 0 0 0 0 0 0 e.e.e.e.j.[ ] ] ] ] d.] ] ] ] ] x.e.e.e.e.l 0 0 0 0 0 0 0 0 0 0 0 0 0 0 0 0 0 0 0 0 0 ",
"0 0 0 0 0 0 0 0 0 0 0 0 0 0 0 0 A _ l.l.x.Q E E E 9.@         u.          k.E E E W l.l.:.A A 0 0 0 0 0 0 0 0 0 0 0 0 0 0 0 0 0 ",
"0 0 0 0 0 0 0 0 0 0 0 0 0 0 J L 0.=.Q C t.M       ,.@         u.          h.      a k.V +.0.0.) K 0 0 0 0 0 0 0 0 0 0 0 0 0 0 0 ",
"0 0 0 0 0 0 0 0 0 0 0 A K K ;.z.W B B > 8.        ,.@         u.          h.        h.$ B B U s.6.K K S 0 0 0 0 0 0 0 0 0 0 0 0 ",
"0 0 0 0 0 0 0 0 0 0 0 H 7.7.@.g.I = = + 8.        ,.@         u.          h.        h.X = = N s.O.7.7.( 0 0 0 0 0 0 0 0 0 0 0 0 ",
"0 0 0 0 0 0 0 0 0 0 0 2.| | / s.=       8.        ,.@         u.          h.        h.      & i.! | | &.G 0 0 0 0 0 0 0 0 0 0 0 ",
"0 0 0 0 0 0 0 0 0 4.j.~ h X X u.        8.        ,.@         u.          h.        h.        u.X < Q ! r.f.0 0 0 0 0 0 0 0 0 0 ",
"0 0 0 0 0 0 A ..3.[ l.c       u.        8.        ,.@         u.          h.        h.        u.      u y.~ 2.H A 0 0 0 0 0 0 0 ",
"0 0 0 0 0 j o.%.` b k.        u.        8.        ,.@         u.          h.        h.        u.        8.h ' *.X.D 0 0 0 0 0 0 ",
"0 0 0 0 0 A 0.Q Q - h.        u.        8.        ,.@         u.          h.        h.        u.        8.X Q } w.L 0 0 0 0 0 0 ",
"0 0 0 0 0 1.| C 7 O h.        u.        8.        ,.@         u.          h.        h.        u.        8.. 9 ^  .-.k 0 0 0 0 0 ",
"0 0 0 0 0 l.B + .   h.        u.        8.        ,.@         u.          h.        h.        u.        8.  . > V 0.A 0 0 0 0 0 ",
"0 0 0 0 e.Q c       h.        u.        8.        ,.@         u.          h.        h.        u.        8.    * b W p.F 0 0 0 0 ",
"0 0 0 0 e.E         h.        u.        8.        ,.@         u.          h.        h.        u.        8.        u W e.0 0 0 0 ",
"0 0 0 0 e.E         h.        u.        8.        ,.@         u.          h.        h.        u.        8.          E e.0 0 0 0 ",
"0 0 0 0 e.E         h.        u.        8.        ,.@         u.          h.        h.        u.        8.          E e.0 0 0 0 ",
"0 0 0 0 e.E         h.        u.        8.        ,.@         u.          h.        h.        u.        8.          E e.0 0 0 0 ",
"0 0 0 0 e.E         h.        u.        8.        ,.@         u.          h.        h.        u.        8.          E e.0 0 0 0 ",
"0 0 0 0 e.} u u u u k.u u u u a.u u u u w.u u u u 5.s u u u u a.u u u u u k.u u u u k.u u u u a.u u u u w.u u u u u } e.0 0 0 0 ",
"0 0 0 0 e.q.<.<.<.<.<.<.<.<.<.<.<.<.<.<.<.<.<.<.<.<.<.<.<.<.<.<.<.<.<.<.<.<.<.<.<.<.<.<.<.<.<.<.<.<.<.<.<.<.<.<.<.<.q.e.0 0 0 0 ",
"0 0 0 0 e.{ t t t t t t t t t t t t t t t t t t t t t t t t t t t t t t t t t t t t t t t t t t t t t t t t t t t t { e.0 0 0 0 ",
"0 0 0 0 e.E                                                                                                         E e.0 0 0 0 ",
"0 0 0 0 e.E                                                                                                         E e.0 0 0 0 ",
"0 0 0 0 e.E                                                                                                         E e.0 0 0 0 ",
"0 0 0 0 e.E                                                                                                         E e.0 0 0 0 ",
"0 0 0 0 e.E                                                                                                         E e.0 0 0 0 ",
"0 0 0 0 e.E                                                                                                         E e.0 0 0 0 ",
"0 0 0 0 e.E                                                                                                         E e.0 0 0 0 ",
"0 0 0 0 e.E                                                                                                         E e.0 0 0 0 ",
"0 0 0 0 e.E                                                                                                         E e.0 0 0 0 ",
"0 0 0 0 e.E                                                                                                         E e.0 0 0 0 ",
"0 0 0 0 e.E                                                                                                         E e.0 0 0 0 ",
"0 0 0 0 e.E                                                                                                         E e.0 0 0 0 ",
"0 0 0 0 e.E                                                                                                         E e.0 0 0 0 ",
"0 0 0 0 e.E                                                                                                         E e.0 0 0 0 ",
"0 0 0 0 e.E                                                                                                         E e.0 0 0 0 ",
"0 0 0 0 e.E                                                                                                         E e.0 0 0 0 ",
"0 0 0 0 e.E                                                                                                         E e.0 0 0 0 ",
"0 0 0 0 e.E                                                                                                         E e.0 0 0 0 ",
"0 0 0 0 e.E                                                                                                         E e.0 0 0 0 ",
"0 0 0 0 e.E                                                                                                         E e.0 0 0 0 ",
"0 0 0 0 e.E                                                                                                         E e.0 0 0 0 ",
"0 0 0 0 e.E                                       : 2 2 2 2 2 2 2 2 2 2 2 2 :                                       E e.0 0 0 0 ",
"0 0 0 0 e.E                               4 4 4 4 6 8 8 8 8 8 8 8 8 8 8 8 8 6 4 4 4 .                               E e.0 0 0 0 ",
"0 0 0 0 e.E                   o o % 8 8 8 8 8 w w w w z z z z z z z z z z w w w w 8 8 8 8 8 % o o                   E e.0 0 0 0 ",
"0 0 0 0 e.E           . # # # 5 8 8 8 e r r y z z z z z z z z z z z z z z z z z z y r r e 8 8 8 5 # # # .           E e.0 0 0 0 ",
"0 0 0 0 e.E           + 8 8 8 8 8 8 8 p z z z z z z z z z z z z z z z z z z z z z z z z p 8 8 8 8 8 8 8 +           E e.0 0 0 0 ",
"0 0 0 0 e.E       ; , 1 8 8 8 8 p p p f z z z z z z z z z z z z z z z z z z z z z z z z f p p p 8 8 8 8 1 , ;       E e.0 0 0 0 ",
"0 0 0 0 e.W 3 3 3 6 8 8 r d d d z z z z z z z z z z U Y Y Y Y Y Y Y Y Y Y U z z z z z z z z z z d i 8 8 8 8 6 3 3 3 W e.0 0 0 0 ",
"0 0 0 0 e.W 8 q q q g z z z z z z z z z x x Q Q Q Q Q Q Q Q Q Q Q Q Q Q Q Q Q Q Q Q x x z z z z z z z z z g q q q 8 W e.0 0 0 0 ",
"0 0 0 0 e.W y z z z z z z z z z z x m m T Q Q Q Q Q Q Q Q Q Q Q Q Q Q Q Q Q Q Q Q Q Q T m m x z z z z z z z z z z y W e.0 0 0 0 ",
"0 0 0 0 e.W z z z z z z z z v n n V Q Q Q Q Q Q Q Q Q Q Q Q Q Q Q Q Q Q Q Q Q Q Q Q Q Q Q Q V n n v z z z z z z z z W e.0 0 0 0 ",
"0 0 0 0 e.W z z z z z z z z Z I I Y Q Q Q Q Q Q Q Q Q Q Q Q Q Q Q Q Q Q Q Q Q Q Q Q Q Q Q Q Y I I Z z z z z z z z z W e.0 0 0 0 ",
"0 0 0 0 e.W z z z z P I I I W Q Q Q Q Q Q Q Q Q Q Q Q Q Q Q Q Q Q Q Q Q Q Q Q Q Q Q Q Q Q Q Q Q Q W I I I P z z z z W e.0 0 0 0 ",
"0 0 0 0 e.W z n P W Q Q Q Q Q Q Q Q Q Q Q Q Q Q Q Q Q Q Q Q Q Q Q Q Q Q Q Q Q Q Q Q Q Q Q Q Q Q Q Q Q Q Q Q W P n z W e.0 0 0 0 ",
"0 0 0 0 1.R R R R R R R R R R R R R R R R R R R R R R R R R R R R R R R R R R R R R R R R R R R R R R R R R R R R R R 1.0 0 0 0 ",
"0 0 0 0 0 0 0 0 0 0 0 0 0 0 0 0 0 0 0 0 0 0 0 0 0 0 0 0 0 0 0 0 0 0 0 0 0 0 0 0 0 0 0 0 0 0 0 0 0 0 0 0 0 0 0 0 0 0 0 0 0 0 0 0 ",
"0 0 0 0 0 0 0 0 0 0 0 0 0 0 0 0 0 0 0 0 0 0 0 0 0 0 0 0 0 0 0 0 0 0 0 0 0 0 0 0 0 0 0 0 0 0 0 0 0 0 0 0 0 0 0 0 0 0 0 0 0 0 0 0 ",
"0 0 0 0 0 0 0 0 0 0 0 0 0 0 0 0 0 0 0 0 0 0 0 0 0 0 0 0 0 0 0 0 0 0 0 0 0 0 0 0 0 0 0 0 0 0 0 0 0 0 0 0 0 0 0 0 0 0 0 0 0 0 0 0 ",
"0 0 0 0 0 0 0 0 0 0 0 0 0 0 0 0 0 0 0 0 0 0 0 0 0 0 0 0 0 0 0 0 0 0 0 0 0 0 0 0 0 0 0 0 0 0 0 0 0 0 0 0 0 0 0 0 0 0 0 0 0 0 0 0 "
};
