/* XPM */
static char *result[] = {
/* columns rows colors chars-per-pixel */
"64 64 153 2 ",
"   c #010100",
".  c #090401",
"X  c #0A0806",
"o  c #06060B",
"O  c #0C0709",
"+  c #090809",
"@  c #120000",
"#  c #100904",
"$  c #1F060B",
"%  c #140C09",
"&  c #1B120C",
"*  c #0A0A15",
"=  c #070C18",
"-  c #0B0D1B",
";  c #1C1616",
":  c #181818",
">  c #200000",
",  c #2B0000",
"<  c #2C050B",
"1  c #330204",
"2  c #3A0101",
"3  c #33060B",
"4  c #3D0509",
"5  c #20120C",
"6  c #240811",
"7  c #281D14",
"8  c #292118",
"9  c #302218",
"0  c #3B2C1E",
"q  c #0A1122",
"w  c #0E162B",
"e  c #141426",
"r  c #1D1123",
"t  c #17172E",
"y  c #1B1428",
"u  c #1A192F",
"i  c #121C37",
"p  c #191932",
"a  c #1E1E3C",
"s  c #211D2B",
"d  c #292625",
"f  c #382C21",
"g  c #352828",
"h  c #3E3124",
"j  c #343434",
"k  c #3B3A3A",
"l  c #470101",
"z  c #4B0101",
"x  c #630101",
"c  c #6E0204",
"v  c #432020",
"b  c #5F2626",
"n  c #413122",
"m  c #4B3C2C",
"M  c #563221",
"N  c #5C3623",
"B  c #663B27",
"V  c #584634",
"C  c #7C4830",
"Z  c #1D305F",
"A  c #303647",
"S  c #21376C",
"D  c #243A74",
"F  c #253C78",
"G  c #313C78",
"H  c #533D77",
"J  c #6B3160",
"K  c #474757",
"L  c #585858",
"P  c #6D5740",
"I  c #4F4F67",
"U  c #7C7C7C",
"Y  c #850101",
"T  c #880101",
"R  c #950101",
"E  c #9D0202",
"W  c #930909",
"Q  c #A40202",
"!  c #AD0202",
"~  c #B30202",
"^  c #BE0202",
"/  c #B60E1A",
"(  c #A41111",
")  c #981C35",
"_  c #AD1223",
"`  c #A2172C",
"'  c #CF0202",
"]  c #D21414",
"[  c #D52121",
"{  c #D62929",
"}  c #DC3B2C",
"|  c #D93535",
" . c #DA3B3B",
".. c #844C33",
"X. c #9C5A3C",
"o. c #892344",
"O. c #947556",
"+. c #9E7D5D",
"@. c #877869",
"#. c #DC4644",
"$. c #DC4949",
"%. c #DF5959",
"&. c #AA8865",
"*. c #B28562",
"=. c #B6906B",
"-. c #BA936C",
";. c #C59D74",
":. c #C89E74",
">. c #EE8663",
",. c #CDA378",
"<. c #D1A77C",
"1. c #D7AB7F",
"2. c #284181",
"3. c #2B478C",
"4. c #2E4B95",
"5. c #2F4D99",
"6. c #344B94",
"7. c #34529C",
"8. c #424486",
"9. c #484181",
"0. c #556EAC",
"q. c #5D74AF",
"w. c #697FB6",
"e. c #939497",
"r. c #8F97AC",
"t. c #B7B7B7",
"y. c #CC9292",
"u. c #DAAD80",
"i. c #DDB082",
"p. c #E0B284",
"a. c #E7B888",
"s. c #EDBC8B",
"d. c #F1BF8D",
"f. c #D1A9B6",
"g. c #EEA8A8",
"h. c #F1B8B8",
"j. c #F4C28F",
"k. c #F9C692",
"l. c #FFCB96",
"z. c #B7C2DC",
"x. c #C3C3C4",
"c. c #CBCBCB",
"v. c #D7D7D7",
"b. c #EDC7C7",
"n. c #F4C6C6",
"m. c #F5CACA",
"M. c #F9DCD7",
"N. c #FFEFDF",
"B. c #D1D8E9",
"V. c #FAE6E6",
"C. c #FFF0E1",
"Z. c #FDF5F5",
"A. c #FFFFFF",
/* pixels */
"a a a a a a a a a a a a a a a a a a a a a a a a a a a a a a a a a a a a a a a a a a a a a a a a a a a a a a a a a a a a a a a a ",
"a a a a a a a a a a a a a a a a a a a a a a a a a a a a a a a a a a a a a a a a a a a a a a a a a a a a a a a a a a a a a a a a ",
"a a a a a a a a a a a a a a a a a a a a a a a a a a a a a a a a a a a a a a a a a a a a a a a a a a a a a a a a a a a a a a a a ",
"a a a a a a a a a a a a a a a a a a a a a a a a a a a a a a a a a a a a a a a a a a a a a a a a a a a a a a a a a a a a a a a a ",
"a a a a a a a a a a a a a a a a a a a a a a a a a a a a a a a a a a a a a a a a a a a a a a a a a a a a a a a a a a a a a a a a ",
"a a a a a a a a a a a a a a a a a a a a a a a a a a a a a a a a a a a a a a a a a a a a a a a a a a a a a a a a a a a a a a a a ",
"a a a a a a a a a a a a a a a a a a a a a a a a a a a t t t t t t t t p a a a a a a a a a a a a a a a a a a a a a a a a a a a a ",
"a a a a a a a a a a a a a a a a a a a a a a a a a a p , , , , , , , , r a a a a a a a a a a a a a a a a a a a a a a a a a a a a ",
"a a a a a a a a a a a a a a a a a a a a a a a a a a + Q Q Q Q Q Q Q Q 4 p a a a a a a a a a a a a a a a a a a a a a a a a a a a ",
"a a a a a a a a a a a a a a a a a a a a a a a a a - E ' ' ' ' ' ' ' ' ! $ a a a a a a a a a a a a a a a a a a a a a a a a a a a ",
"a a a a a a a a a a a a a a a a a a a a a a a p + E ' ' ' ' ' ' ' ' ' ' '   a a a a a a a a a a a a a a a a a a a a a a a a a a ",
"a a a a a a a a a a a a a a a a a a a a a a y l ! [ { ' ' ' ' ' ' ' ' ' ' ' $ 6 t p a a a a a a a a a a a a a a a a a a a a a a ",
"a a a a a a a a a a a a a a a a a a a a a a , ] $.M.A.%. .' ' ' ' ' ' ' ' ' ' ~ x s a a a a a a a a a a a a a a a a a a a a a a ",
"a a a a a a a a a a a a a a a a a a a a a a , | m.A.A.A.g.' ' ' ' ' ' ' ' ' ' ' ' , a a a a a a a a a a a a a a a a a a a a a a ",
"a a a a a a a a a a a a a a a a a a a a a a g n.Z.A.A.A.V.h.h.h.' ' ' ' ' ' ' ' ' Q O - a a a a a a a a a a a a a a a a a a a a ",
"a a a a a a a a a a a a a a a a a a a a +     : : : : : : : : : @ z ' ' ' ' ' ' ' ' ^ E * a a a a a a a a a a a a a a a a a a a ",
"a a a a a a a a a a a a a a a a a a a = E ' ' ' ' ' ' ' ' ' ' ' ' R @ Y ' ' ' ' ' ' ' ' T   y a a a a a a a a a a a a a a a a a ",
"a a a a a a a a a a a a a a a a a a a a - R ( $.$.$.$.} } } #.$.$.| ' c T R Q ' ' ' ' ' T   t a a a a a a a a a a a a a a a a a ",
"a a a a a a a a a a a a a a a a a a a a a   k A.A.A.A.l.l.l.C.A.A.h.' ' >   , ' ' ' ' ' T   t a a a a a a a a a a a a a a a a a ",
"a a a a a a a a a a a a a a a a a a a a a e K A.A.U L l.l.l.@.L A.M.>.>.*.  . l l l l l 3 e p a a a a a a a a a a a a a a a a a ",
"a a a a a a a a a a a a a a a a a a a a a a I A.A.k   l.l.l.m   A.N.l.l.l.,.      &.1.=.- a a a a a a a a a a a a a a a a a a a ",
"a a a a a a a a a a a a a a a a a a a a a a k A.A.k . l.l.l.m . A.N.l.l.l.l.,.    :.l.1.* a a a a a a a a a a a a a a a a a a a ",
"a a a a a a a a a a a a a a a a a a a a p f l.l.l.l.l.l.l.l.l.l.l.l.l.l.l.l.+.    ,.l.1.* a a a a a a a a a a a a a a a a a a a ",
"a a a a a a a a a a a a a a a a a a a a O l.l.l.l.l.l.l.l.l.l.l.l.d.,.,.,.k.7 X 8 <.l.&.- a a a a a a a a a a a a a a a a a a a ",
"a a a a a a a a a a a a a a a a a a a a O l.l.l.l.l.l.l.l.l.l.l.l.:.0 0 0 l.+.8 +.j.l.d p a a a a a a a a a a a a a a a a a a a ",
"a a a a a a a a a a a a a a a a a a a a O h l.l.l.l.l.l.l.l.l.l.s.9 .   . l.j.<.j.l.l.o a a a a a a a a a a a a a a a a a a a a ",
"a a a a a a a a a a a a a a a a a a a a X   X n ,.l.l.l.l.l.l.7 #       <.l.l.l.l.l.O a a a a a a a a a a a a a a a a a a a a a ",
"a a a a a a a a a a a a a a a a a a a a a o         . . . . . .       & i.l.l.l.l.p.O a a a a a a a a a a a a a a a a a a a a a ",
"a a a a a a a a a a a a a a a a a a a a a a *                   X V V ;.l.l.l.l.l.f a a a a a a a a a a a a a a a a a a a a a a ",
"p A a a a a a a a a a a a a a a a a a a a a u . . . . . . . . . & l.l.l.l.l.l.l.l.f a a a a a a a a a a a a a a a p A a a a a a ",
"a a a a a a a a a a a a a a a a a a a a a a u 7 O.-.-.-.-.-.-.-.;.l.l.l.l.l.l.u.P u a a a a a a a a a a a a a a a a a a a a a a ",
"a a a a a a a a a a a a a a a a a a a a a a a u 7 :.l.l.l.l.l.l.l.l.l.l.l.l.,.; t a a a a a a a a a a a a a a a a a a a a a a a ",
"a a a a a a a a a a a a a a a a a a a a a a a a a O p.a.a.a.a.a.a.a.a.a.a.i.* a a a a a a a a a a a a a a a a a a a a a a a a a ",
"a a a a a a a a a a a a a a a a a a a a a a a a p 3 e e 2 2 2 2 2 < w w 1 2 3 t a a a a a a a a a a a a a a a a a a a a a a a a ",
"a a a a a a a a a a a a a a a a a a a a a a a t o Q 6.9.' ' ' ' ' ` 5.5./ ' Q o p a a a a a a a a a a a a a a a a a a a a a a a ",
"a a a a a a a a a a a a a a a a a a a a a a p 6 c ^ 6.9.' ' ' ' ' ` 5.5./ ' ^ c 6 p a a a a a a a a a a a a a a a a a a a a a a ",
"a a a a a a a a a a a a a a a a a a a a a a t , Q ' 6.9.' ' ' ' ' ` 5.5./ ' ' ' ~ < p a a a a a a a a a a a a a a a a a a a a a ",
"a a a a a a a a a a a a a a a a a a a a a a t , Q ' 6.9.' ' ' ' ' ` 5.5./ ' ' ' ' '   a a a a a a a a a a a a a a a a a a a a a ",
"a a a a a a a a a a a a a a a a a a a a a a y z ! ' 6.8._ _ _ _ _ o.5.5.) ' ' ' ' ' 1 p a a a a a a a a a a a a a a a a a a a a ",
"a a a a a a a a a a a a a a a a a a a a a a 1 ' ' / 6.5.5.5.5.5.5.5.5.5.5._ ' ' ' ' ' o a a a a a a a a a a a a a a a a a a a a ",
"a a a a a a a a a a a a a a a a a a a a a a , ' ' J 5.5.5.5.5.5.5.5.5.5.5.H ' ' ' ' ' o a a a a a a a a a a a a a a a a a a a a ",
"a a a a a a a a a a a a a a a a a a a a a a , ' ' f.7.5.5.5.5.5.5.q.B.B.B.6.' ' ' ' ' . a a a a a a a a a a a a a a a a a a a a ",
"a a a a a a a a a a a a a a a a a a a a a a , ' ' m.7.5.5.5.5.5.5.w.A.A.A.6.' ' ' ' ' o a a a a a a a a a a a a a a a a a a a a ",
"a a a a a a a a a a a a a a a a a a a a a p d v W b.7.5.5.5.5.5.5.w.A.A.A.6.' ' ' ' { v.* a a a a a a a a a a a a a a a a a a a ",
"a a a a a a a a a a a a a a a a a a a a a + A.c.j r.7.5.5.5.5.5.5.0.z.z.z.4.` ' ' ' Z.v.* a a a a a a a a a a a a a a a a a a a ",
"a a a a a a a a a a a a a a a a a a a a a + A.c.j F 5.5.5.5.5.5.5.5.5.5.5.5.H ' ' ' Z.v.= a a a a a a a a a a a a a a a a a a a ",
"a a a a a a a a a a a a a a a a a a a a a + A.c.j F 5.5.5.5.5.5.5.5.5.5.5.5.G b y.h.A.v.* a a a a a a a a a a a a a a a a a a a ",
"a a a a a a a a a a a a a a a a a a a a a + A.c.j F 5.5.5.5.5.5.5.5.5.5.5.5.F j c.A.A.v.* a a a a a a a a a a a a a a a a a a a ",
"a a a a a a a a a a a a a a a a a a a a a X A.c.j o 4.5.5.5.5.5.5.5.5.5.5.5.F j c.A.A.x.* a a a a a a a a a a a a a a a a a a a ",
"a a a a a a a a a a a a a a a a a a a a a * t.e.d D 5.5.5.5.5.5.5.5.5.5.5.5.2.A e.t.t.= a a a a a a a a a a a a a a a a a a a a ",
"a a a a a a a a a a a a a a a a a a a a a a       D 5.5.5.5.5.5.5.5.5.5.5.5.5.F q     a a a a a a a a a a a a a a a a a a a a a ",
"a a a a a a a a a a a a a a a a a a a a a a e e e i 4.5.5.5.5.5.5.5.5.5.5.5.5.F q - e a a a a a a a a a a a a a a a a a a a a a ",
"a a a a a a a a a a a a a a a a a a a a a a a a a o 4.5.5.5.i 3.5.5.5.5.5.5.5.F q t a a a a a a a a a a a a a a a a a a a a a a ",
"a a a a a a a a a a a a a a a a a a a a a a a a a o 4.5.5.5.w 3.5.5.5.5.5.5.5.F - t a a a a a a a a a a a a a a a a a a a a a a ",
"a a a a a a a a a a a a a a a a a a a a a t t t t o D F F F q S F F F F F F F Z = e a a a a a a a a a a a a a a a a a a a a a a ",
"a a a a a a a a a a a a a a a a a a a a p 5 5 & & 5 5 5 %   % 5 5 5 5 5 5 5 & 5 & . a a a a a a a a a a a a a a a a a a a a a a ",
"a a a a a a a a a a a a a a a a a a a a * C C C C C C C M   N ..C C C C C C C C C ; a a a a a a a a a a a a a a a a a a a a a a ",
"a a a a a a a a a a a a a a a a a a a a o X.X.X.X.X.X.X.B o B X.X.X.X.X.X.X.X.X.X.5 a a a a a a a a a a a a a a a a a a a a a a ",
"a a a a a a a a a a a a a a a a a a a a o X.X.X.X.X.X.X.B   B X.X.X.X.X.X.X.X.X.X.5 a a a a a a a a a a a a a a a a a a a a a a ",
"a a a a a a a a a a a a a a a a a a a a * ..............M   N ....................$ p a a a a a a a a a a a a a a a a a a a a a ",
"a a a a a a a a a a a a a a a a a a a a a * * * * * * * * * * * * * * * * * * * * * a a a a a a a a a a a a a a a a a a a a a a ",
"a a a a a a a a a a a a a a a a a a a a a a a a a a a a a a a a a a a a a a a a a a a a a a a a a a a a a a a a a a a a a a a a ",
"a a a a a a a a a a a a a a a a a a a a a a a a a a a a a a a a a a a a a a a a A p a a a a a a a a a a a a a a a a a a a a a a ",
"a a a a a a a a a a a a a a a a a a a a a a a a a a a a a a a a a a a a a a a a a a a a a a a a a a a a a a a a a a a a a a a a "
};
