/* XPM */
static char *result[] = {
/* columns rows colors chars-per-pixel */
"64 64 81 1 ",
"  c #3D3E40",
". c #3E3F41",
"X c #3F4042",
"o c #3F4043",
"O c #404143",
"+ c #404244",
"@ c #414244",
"# c #414245",
"$ c #424345",
"% c #424346",
"& c #434446",
"* c #434447",
"= c #434547",
"- c #444547",
"; c #444548",
": c #444648",
"> c #454648",
", c #454649",
"< c #454749",
"1 c #464749",
"2 c #46474A",
"3 c #46484A",
"4 c #47484B",
"5 c #47494B",
"6 c #48494B",
"7 c #484A4C",
"8 c #494A4C",
"9 c #494A4D",
"0 c #494B4D",
"q c #4A4B4E",
"w c #4B4C4F",
"e c #4B4D50",
"r c #4C4D50",
"t c #4D4E51",
"y c #4E5052",
"u c #4E5053",
"i c #4F5153",
"p c #4F5154",
"a c #505154",
"s c #505254",
"d c #515255",
"f c #515355",
"g c #515356",
"h c #525356",
"j c #525457",
"k c #535457",
"l c #535558",
"z c #545558",
"x c #545658",
"c c #545659",
"v c #555659",
"b c #555759",
"n c #55575A",
"m c #56585A",
"M c #56585B",
"N c #57595C",
"B c #67686D",
"V c #6B6D71",
"C c #6D6E73",
"Z c #78797F",
"A c #797A80",
"S c #9999A2",
"D c #9FA0AA",
"F c #A0A1AA",
"G c #A7A7B1",
"H c #AAAAB4",
"J c #ABACB6",
"K c #AEAFBA",
"L c #AFAFBA",
"P c #B2B2BD",
"I c #B3B3BF",
"U c #B3B4BF",
"Y c #B4B4BF",
"T c #B8B8C3",
"R c #B8B8C4",
"E c #B8B9C4",
"W c #B9B9C4",
"Q c #B9B9C5",
"! c #BABAC5",
"~ c #BABAC6",
"^ c #BBBBC7",
/* pixels */
"~PPPPPPPPPPITPPPPPPPPPPPPPPPPPP~PPPPPPPPPPPPPPPPPPPP!PPPPPPPPPP~",
"PNNNNNNNNNNBSNNNNNNNNNNNNNNNNNNPNNNNNNNngaaaaanNNNNNJNNNNNNNNNNP",
"PNNNNNNNNNNBSNNNNNNNNNNNNNNNNNNPNNNNNNNh%     aNNNNNJNNNNNNNNNNP",
"PNNNNNNl0lNBSNNNNNNNN2222lNNNNNPNNNr2NNnayyy7 =nNNNNJNl2222NNNNP",
"PNN8@NjO.gNBSNNNNNN8@.y  gNNNNNPNNNclNNNNNNNml*@NNNNJMO#ull@8NNP",
"PNN3 Mf..gNBSNNNNNN3.Xg  dMMNNNPNNNNNMNNNNNNNN>.MMNNJNNNNNNl3NNP",
"PNNN2&4NNNNBSNNNNNNNNNk&&&&2NNNPNNNNN=NNNNNNNNNN&7NNJNNNNNNNNNNP",
"UVVVVVVVVVVZDVVVVVVVVVVVVVVVVVVUVVVVVVVVVVVVVVVVVVVVKVVVVVVVVVVU",
"QGGGGGGGGGGHYGGGGGGGGGGGGGGGGGGQGGGGGGGGGGGGGGGGGGGGTGGGGGGGGGGQ",
"YCCCCCCCCCCCCCCCCCCCCWCCCCCCCCCCCCCCCCCCCCWCCCCCCCCCCCCCCCCCCCCY",
"PNNNNNNNNNNNNNNNONNNNRNNNNNNNNNNNs...NNNNNRNNNNNNNNNN..&hNNNNNNP",
"PNNNN@@<jNNlll*@@@@pNRNNNNNlllllf.@pNNNNNNRNp@@@@@@t+$j@@@MNNNNP",
"PNNNNNNNNsy.222nNNNNNRNNNNN222222wNNNNNNNNRNNNNiyyy&:NNNNNNNNNNP",
"PNNNNNNNN& @NNNNNNNNNRNNNNNNNNNNNNNNNNNNNNRNNNNo    lNNNNNNNNNNP",
"PNNNNNNNN& @NNNNNNNNNRNNNNNNNNNNNNNNNNNNNNRNNNNo    lNNNNNNNNNNP",
"PNNNNNNNNnvnNNNNNNNNNRNNNNNNNNNNNNNNNNNNNNRNNNNnvvvvNNNNNNNNNNNP",
"~PPPPPPPPPPITPPPPPPPPPPPPPPPPPP~PPPPPPPPPPPPPPPPPPPP!PPPPPPPPPP~",
"PNNNNNNNNNNBSNNNNNNNNNNNNNNNNNNPNNNNNNNNNNNNNNNNNNNNJNNNNNNNNNNP",
"PNNNNNNNNNNBSNNNNNNNNNNNNNNNNNNPNNNNNNNNNNNNNNNNNNNNJNNNNNNNNNNP",
"PNNN82ql022BSNNNNNNNNNNNNq22rNNPnwNNNNl22228NNNNNNNNJNl222McrNNP",
"PNNNz .O.ylBSNNN@@@@@$j@@illcNNPv.@@@MO#ull.@@@@*NNNJNMlllNl2NNP",
"PNNNNNNNNNNBSNNNNNNNN..&hNNNNNNPNNNN$.=NNNNNNNNNNNNNJNNNN=..3NNP",
"PNNNNNNNNNNBSNNNNNNNNNNNNNNNNNNPNNNNNNNNNNNNNNNNNNNNJNNNNNNNNNNP",
"UVVVVVVVVVVZDVVVVVVVVVVVVVVVVVVUVVVVVVVVVVVVVVVVVVVVKVVVVVVVVVVU",
"QGGGGGGGGGGHYGGGGGGGGGGGGGGGGGGQGGGGGGGGGGGGGGGGGGGGTGGGGGGGGGGQ",
"YCCCCCCCCCCCCCCCCCCCCWCCCCCCCCCCCCCCCCCCCCWCCCCCCCCCCCCCCCCCCCCY",
"PNNNNNNNNNNNNNNNNNNNNRNh&..NNNNNNNNNNNNNNNRNNNNNNNNNNNNNNNNNNNNP",
"PNNNNNj@@@ lll2@*NNNNRNNNNN@O tllt O.lcNNNRNp@@ lllllj.@@@MNNNNP",
"PNNNNNNNNN3.22jNNNNNNRNNNNNNg2O,222g82qNNNRNNNN6222222qNNNNNNNNP",
"PNNNNNNNNNN@NNNNNNNNNRNNNNNNNN:vNNNNNNNNNNRNNNNNNNNNNNNNNNNNNNNP",
"PNNNNNNNNNNfNNNNNNNNNRNNNNNNNNhMNNNNNNNNNNRNNNNNNNNNNNNNNNNNNNNP",
"~PPPPPPPPPPPPPPPPPPPP^PPPPPPPPPPPPPPPPPPPP^PPPPPPPPPPPPPPPPPPPP~",
"PNNNNNNNNNNBSNNNNNNNNNNNNNNNNNNPNNNNNNNNNNNNNNNNNNNNJNNNNNNNNNNP",
"PNNNNNNNNNNBSNNNNNNNNNNNNNNNNNNPNNNNNNNNNNNNNNNNNNNNJNNNNNNMaanP",
"PNNNNNNNNNNBSNNNNNNNNNNNNNNNNNNPNNNNNNNNNNNNNNNNNNNNJNNNNNNl  aP",
"PNNr2NNl02MBSNN6222222qNNNNNNNNPNNNrcNNNNq22rNNNNNNNJNNNNq2:&ycP",
"PNNc+$Nh%yNBSNNllllllli@@@@NNNNPNNN2+M@@@.jlt@@@NNNNJNNNNcllcNNP",
"PNNNN..&hNNBSNNNNNNNNNNNNNXNNNNPNNNN$.=NNNNNNNNNNNNNJNNNNNNNNNNP",
"YCCCCCCCCCCAFCCCCCCCCCCCCCCCCCCYCCCCCCCCCCCCCCCCCCCCLCCCCCCCCCCY",
"QGGGGGGGGGGGGGGGGGGGG~GGGGGGGGGGGGGGGGGGGG~GGGGGGGGGGGGGGGGGGGGQ",
"UVVVVVVVVVVVVVVVVVVVVEVVVVVVVVVVVVVVVVVVVVEVVVVVVVVVVVVVVVVVVVVU",
"PNNNNNNNNNNNNNNNNNNNNRNNNNNNNNNNNNNNNNNNNNRNNNNNNNNNNNNNNNNNNNNP",
"PNNNN.=NNNNNNNNNNNNNNRNNNNNNNNNOONNNNNNNNNRNNNNNNNNNNNNNNNNNNNNP",
"PNN8@M$llll.@@@ lNNNNRNj<@@@@@@n@O ellcNNNRNNN5@@O ellllll.:NNNP",
"PNNNNM222228NNN66NNNNRNNNNNNNNNNNj2222qNNNRmyycNNa  :222222NNNNP",
"PNNNNNNNNNNNNNNNNNNNNRNNNNNNNNNNNNNNNNNNNNRl  aNNa  lNNNNNNNNNNP",
"PNNNNNNNNNNNNNNNNNNNNRNNNNNNNNNNNNNNNNNNNNRMaanNNnaaMNNNNNNNNNNP",
"~PPPPPPPPPPPPPPPPPPPP^PPPPPPPPPPPPPPPPPPPP^PPPPPPPPPPPPPPPPPPPP~",
"PMvMNNNNNNNBSNNNNNNNNNNNNNNNNNNPNMvMNNvvvvvNNNNNNNNNJNNMnMNNNNNP",
"Pa yNNNNNNNBSNNNNNNNNNNNNNNNNNNPNa yNM     NNNNNNNNNJNNh%gNNNNNP",
"Pa yNNNNNNNBSNNNNNNNNNNNNNNNNNNPNa yNM     NNNNNNNNNJNNh%gNNNNNP",
"Pa &22222lNBSNw26NNN82222lNNNNNPNcy921@yyy.8NNNNNNNNJNNh%-McrNNP",
"PMl: llu#gNBSNcl @@@.llu#g$:NNNPNNNcllcNNNl.@@@@NNNNJNNMx$@+2NNP",
"PNNNNNNh&gNBSNNNb..uNNNNN=.NNNNPNNNNNNNNNNNNNNNNNNNNJM.&hNNNNNNP",
"YCCCCCCCCCCAFCCCCCCCCCCCCCCCCCCYCCCCCCCCCCCCCCCCCCCCLCCCCCCCCCCY",
"QGGGGGGGGGGGGGGGGGGGG~GGGGGGGGGGGGGGGGGGGG~GGGGGGGGGGGGGGGGGGGGQ",
"UVVVVVVVVVVVVVVVVVVVVEVVVVVVVVVVVVVVVVVVVVEVVVVVVVVVVVVVVVVVVVVU",
"PNNNNNNNNNNNNNN>&7NNNRNl4kNNNNNNNNNNNNNNNNRNNNNNn&&&&&4NNNNNNNNP",
"Ps..lNg....NNNNMc .uNRNh%..$NNNNb....NNNNNRNu....;MMMn ....NNNNP",
"Pf@.aly.O@ llllln@@pNRNj<@@+llllf.@@.lcNNNRNp@@@ 5NNzM@@@@ lcNNP",
"PNNr2220lN322222NNNNNRNNNNN222222wNN82qNNNRNNNNN6cyyOuNNNN32rNNP",
"PNNNNNNNNNNNNNNNNNNNNRNNNNNNNNNNNNNNNNNNNNRNNNNNNa   .NNNNNNNNNP",
"PNNNNNNNNNNNNNNNNNNNNRNNNNNNNNNNNNNNNNNNNNRNNNNNNnaaasNNNNNNNNNP",
"~PPPPPPPPPPPPPPPPPPPP^PPPPPPPPPPPPPPPPPPPP^PPPPPPPPPPPPPPPPPPPP~"
};
